<svg id="svg" version="1.1" width="400" height="91.15977291159773" xmlns="http://www.w3.org/2000/svg" xmlns:xlink="http://www.w3.org/1999/xlink" style="display: block;"><g id="svgg"><path id="path0" d="" stroke="none" fill="#000000" fill-rule="evenodd"></path><path id="path1" d="M235.910 83.083 C 235.910 87.025,235.932 88.614,235.958 86.614 C 235.985 84.614,235.985 81.389,235.958 79.447 C 235.931 77.505,235.910 79.142,235.910 83.083 " stroke="none" fill="#bf4040" fill-rule="evenodd"></path><path id="path2" d="M362.250 0.115 C 361.700 0.153,361.179 0.256,361.092 0.342 C 361.005 0.429,360.615 0.500,360.227 0.500 C 359.838 0.500,359.473 0.575,359.417 0.667 C 359.360 0.758,359.060 0.833,358.750 0.833 C 358.440 0.833,358.140 0.908,358.083 1.000 C 358.027 1.092,357.764 1.167,357.500 1.167 C 357.236 1.167,356.973 1.242,356.917 1.333 C 356.860 1.425,356.667 1.500,356.488 1.500 C 356.173 1.500,356.011 1.560,355.211 1.974 C 355.006 2.080,354.687 2.167,354.502 2.167 C 354.318 2.167,354.167 2.242,354.167 2.333 C 354.167 2.425,354.017 2.500,353.833 2.500 C 353.650 2.500,353.500 2.575,353.500 2.667 C 353.500 2.758,353.386 2.833,353.246 2.833 C 352.708 2.833,349.574 4.586,348.863 5.284 C 348.742 5.403,348.577 5.500,348.496 5.500 C 348.415 5.500,348.176 5.669,347.965 5.875 C 347.754 6.081,347.311 6.452,346.980 6.699 C 345.828 7.560,342.833 10.810,342.833 11.199 C 342.833 11.281,342.683 11.508,342.500 11.705 C 342.317 11.902,342.167 12.161,342.167 12.281 C 342.167 12.402,342.092 12.500,342.000 12.500 C 341.908 12.500,341.833 12.598,341.833 12.719 C 341.833 12.839,341.683 13.098,341.500 13.295 C 341.317 13.492,341.167 13.768,341.167 13.910 C 341.167 14.051,341.092 14.167,341.000 14.167 C 340.908 14.167,340.833 14.317,340.833 14.500 C 340.833 14.683,340.758 14.833,340.667 14.833 C 340.575 14.833,340.500 14.983,340.500 15.167 C 340.500 15.350,340.425 15.500,340.333 15.500 C 340.242 15.500,340.167 15.650,340.167 15.833 C 340.167 16.017,340.092 16.167,340.000 16.167 C 339.908 16.167,339.833 16.354,339.833 16.583 C 339.833 16.813,339.758 17.000,339.667 17.000 C 339.575 17.000,339.500 17.151,339.500 17.336 C 339.500 17.520,339.413 17.839,339.307 18.044 C 338.886 18.858,338.833 19.011,338.833 19.405 C 338.833 19.630,338.758 19.860,338.667 19.917 C 338.575 19.973,338.500 20.273,338.500 20.583 C 338.500 20.893,338.425 21.193,338.333 21.250 C 338.242 21.307,338.167 21.634,338.167 21.977 C 338.167 22.319,338.098 22.671,338.015 22.758 C 337.280 23.524,337.265 36.604,337.998 38.250 C 338.079 38.433,338.188 38.865,338.240 39.208 C 338.449 40.607,338.544 41.007,338.685 41.095 C 338.767 41.145,338.833 41.407,338.833 41.677 C 338.833 41.946,338.908 42.167,339.000 42.167 C 339.092 42.167,339.167 42.392,339.167 42.667 C 339.167 42.942,339.242 43.167,339.333 43.167 C 339.425 43.167,339.500 43.350,339.500 43.573 C 339.500 43.797,339.575 44.027,339.667 44.083 C 339.758 44.140,339.833 44.332,339.833 44.510 C 339.833 44.688,339.908 44.833,340.000 44.833 C 340.092 44.833,340.167 44.935,340.167 45.060 C 340.167 45.334,341.199 47.394,341.375 47.472 C 341.444 47.503,341.500 47.634,341.500 47.764 C 341.500 47.894,341.575 48.000,341.667 48.000 C 341.758 48.000,341.833 48.133,341.833 48.297 C 341.833 48.460,341.983 48.701,342.167 48.833 C 342.350 48.965,342.500 49.207,342.500 49.370 C 342.500 49.533,342.560 49.667,342.633 49.667 C 342.707 49.667,342.970 49.985,343.217 50.375 C 343.866 51.395,347.616 55.167,347.982 55.167 C 348.056 55.167,348.353 55.392,348.640 55.667 C 348.928 55.942,349.225 56.167,349.300 56.167 C 349.376 56.167,349.586 56.298,349.767 56.458 C 350.237 56.873,350.871 57.235,352.583 58.064 C 354.679 59.079,355.297 59.333,355.662 59.333 C 355.837 59.333,356.027 59.408,356.083 59.500 C 356.140 59.592,356.407 59.667,356.677 59.667 C 356.946 59.667,357.167 59.742,357.167 59.833 C 357.167 59.925,357.429 60.000,357.750 60.000 C 358.071 60.000,358.333 60.075,358.333 60.167 C 358.333 60.258,358.629 60.333,358.990 60.333 C 359.351 60.333,359.693 60.408,359.750 60.500 C 359.807 60.592,360.182 60.667,360.583 60.667 C 360.985 60.667,361.360 60.742,361.417 60.833 C 361.473 60.925,362.036 61.000,362.667 61.000 C 363.298 61.000,363.860 61.075,363.917 61.167 C 363.981 61.271,365.776 61.333,368.750 61.333 C 371.724 61.333,373.519 61.271,373.583 61.167 C 373.640 61.075,374.202 61.000,374.833 61.000 C 375.464 61.000,376.027 60.925,376.083 60.833 C 376.140 60.742,376.515 60.667,376.917 60.667 C 377.318 60.667,377.693 60.592,377.750 60.500 C 377.807 60.408,378.144 60.333,378.500 60.333 C 378.856 60.333,379.193 60.258,379.250 60.167 C 379.307 60.075,379.574 60.000,379.843 60.000 C 380.113 60.000,380.333 59.925,380.333 59.833 C 380.333 59.742,380.502 59.665,380.708 59.663 C 381.106 59.658,382.626 59.182,383.537 58.777 C 383.837 58.643,384.327 58.433,384.625 58.309 C 384.923 58.186,385.167 58.029,385.167 57.959 C 385.167 57.890,385.317 57.833,385.500 57.833 C 385.683 57.833,385.833 57.758,385.833 57.667 C 385.833 57.575,385.983 57.500,386.167 57.500 C 386.350 57.500,386.500 57.425,386.500 57.333 C 386.500 57.242,386.598 57.167,386.719 57.167 C 386.839 57.167,387.083 57.035,387.260 56.875 C 387.438 56.715,387.790 56.477,388.042 56.347 C 388.294 56.217,388.500 56.048,388.500 55.972 C 388.500 55.896,388.594 55.833,388.708 55.833 C 388.823 55.832,389.156 55.607,389.449 55.333 C 389.742 55.058,390.025 54.833,390.079 54.833 C 390.132 54.833,390.502 54.515,390.901 54.125 C 391.300 53.735,391.983 53.079,392.419 52.667 C 392.855 52.254,393.408 51.656,393.647 51.337 C 393.887 51.018,394.290 50.538,394.542 50.271 C 394.794 50.003,395.000 49.717,395.000 49.635 C 395.000 49.553,395.078 49.395,395.174 49.285 C 395.543 48.857,396.428 47.361,396.656 46.778 C 396.788 46.442,396.957 46.167,397.031 46.167 C 397.106 46.167,397.167 46.017,397.167 45.833 C 397.167 45.650,397.242 45.500,397.333 45.500 C 397.425 45.500,397.500 45.354,397.500 45.177 C 397.500 44.999,397.575 44.807,397.667 44.750 C 397.758 44.693,397.833 44.464,397.833 44.240 C 397.833 44.016,397.908 43.833,398.000 43.833 C 398.092 43.833,398.167 43.682,398.167 43.498 C 398.167 43.313,398.242 43.013,398.333 42.831 C 398.425 42.649,398.575 42.351,398.667 42.169 C 398.758 41.987,398.833 41.654,398.833 41.429 C 398.833 41.204,398.908 40.973,399.000 40.917 C 399.092 40.860,399.167 40.560,399.167 40.250 C 399.167 39.940,399.242 39.640,399.333 39.583 C 399.425 39.527,399.500 39.154,399.500 38.754 C 399.500 38.321,399.584 38.000,399.708 37.958 C 399.871 37.904,399.917 36.287,399.917 30.619 C 399.917 25.026,399.869 23.302,399.708 23.142 C 399.594 23.027,399.500 22.615,399.500 22.227 C 399.500 21.838,399.425 21.473,399.333 21.417 C 399.242 21.360,399.167 21.060,399.167 20.750 C 399.167 20.440,399.092 20.140,399.000 20.083 C 398.908 20.027,398.833 19.760,398.833 19.490 C 398.833 19.221,398.758 19.000,398.667 19.000 C 398.575 19.000,398.500 18.775,398.500 18.500 C 398.500 18.225,398.425 18.000,398.333 18.000 C 398.242 18.000,398.167 17.817,398.167 17.593 C 398.167 17.369,398.092 17.140,398.000 17.083 C 397.908 17.027,397.833 16.835,397.833 16.657 C 397.833 16.479,397.758 16.333,397.667 16.333 C 397.575 16.333,397.500 16.183,397.500 16.000 C 397.500 15.817,397.425 15.667,397.333 15.667 C 397.242 15.667,397.167 15.563,397.167 15.437 C 397.167 14.919,394.871 11.019,394.473 10.861 C 394.396 10.831,394.333 10.734,394.333 10.646 C 394.333 10.088,388.935 5.000,388.343 5.000 C 388.246 5.000,388.167 4.938,388.167 4.861 C 388.167 4.785,387.962 4.617,387.712 4.486 C 387.462 4.356,386.847 4.006,386.347 3.708 C 385.846 3.410,385.301 3.167,385.135 3.167 C 384.969 3.167,384.833 3.092,384.833 3.000 C 384.833 2.908,384.683 2.833,384.500 2.833 C 384.317 2.833,384.167 2.758,384.167 2.667 C 384.167 2.575,384.053 2.500,383.914 2.500 C 383.670 2.500,383.493 2.430,382.711 2.026 C 382.506 1.920,382.187 1.833,382.002 1.833 C 381.818 1.833,381.667 1.758,381.667 1.667 C 381.667 1.575,381.442 1.500,381.167 1.500 C 380.892 1.500,380.667 1.425,380.667 1.333 C 380.667 1.242,380.446 1.167,380.177 1.167 C 379.907 1.167,379.640 1.092,379.583 1.000 C 379.527 0.908,379.189 0.833,378.833 0.833 C 378.477 0.833,378.140 0.758,378.083 0.667 C 378.027 0.575,377.700 0.500,377.357 0.500 C 377.014 0.500,376.640 0.407,376.526 0.293 C 376.320 0.087,364.716 -0.058,362.250 0.115 M283.409 2.377 C 283.365 2.492,283.348 4.874,283.372 7.668 L 283.417 12.750 286.125 12.796 L 288.833 12.842 288.833 30.921 L 288.833 49.000 286.292 49.003 C 284.894 49.004,283.655 49.065,283.539 49.139 C 283.375 49.243,283.338 50.481,283.373 54.761 L 283.417 60.250 308.500 60.250 L 333.583 60.250 333.626 48.708 L 333.669 37.167 326.437 37.167 L 319.206 37.167 319.105 37.542 C 319.050 37.748,319.004 40.410,319.002 43.458 L 319.000 49.000 312.667 49.000 L 306.333 49.000 306.333 30.917 L 306.333 12.833 310.417 12.833 L 314.500 12.833 314.500 7.500 L 314.500 2.167 298.995 2.167 C 286.677 2.167,283.473 2.210,283.409 2.377 M233.009 4.792 C 232.891 5.044,232.728 5.380,232.647 5.539 C 232.566 5.699,232.500 5.942,232.500 6.081 C 232.500 6.220,232.425 6.333,232.333 6.333 C 232.242 6.333,232.167 6.516,232.167 6.740 C 232.167 6.964,232.092 7.193,232.000 7.250 C 231.908 7.307,231.833 7.499,231.833 7.677 C 231.833 7.854,231.758 8.000,231.667 8.000 C 231.575 8.000,231.500 8.183,231.500 8.407 C 231.500 8.631,231.425 8.860,231.333 8.917 C 231.242 8.973,231.167 9.165,231.167 9.343 C 231.167 9.521,231.092 9.667,231.000 9.667 C 230.908 9.667,230.833 9.854,230.833 10.083 C 230.833 10.313,230.758 10.500,230.667 10.500 C 230.575 10.500,230.500 10.646,230.500 10.823 C 230.500 11.001,230.425 11.193,230.333 11.250 C 230.242 11.307,230.167 11.536,230.167 11.760 C 230.167 11.984,230.092 12.167,230.000 12.167 C 229.908 12.167,229.833 12.312,229.833 12.490 C 229.833 12.668,229.758 12.860,229.667 12.917 C 229.575 12.973,229.500 13.203,229.500 13.427 C 229.500 13.650,229.425 13.833,229.333 13.833 C 229.242 13.833,229.167 13.926,229.167 14.039 C 229.167 14.152,228.820 15.146,228.395 16.247 C 227.386 18.869,227.321 19.032,227.147 19.373 C 227.066 19.532,227.000 19.813,227.000 19.998 C 227.000 20.182,226.925 20.333,226.833 20.333 C 226.742 20.333,226.667 20.447,226.667 20.586 C 226.667 20.724,226.600 20.968,226.519 21.127 C 226.438 21.286,226.280 21.642,226.167 21.917 C 226.054 22.192,225.895 22.547,225.814 22.706 C 225.733 22.865,225.667 23.109,225.667 23.248 C 225.667 23.386,225.592 23.500,225.500 23.500 C 225.408 23.500,225.333 23.683,225.333 23.907 C 225.333 24.131,225.258 24.360,225.167 24.417 C 225.075 24.473,225.000 24.665,225.000 24.843 C 225.000 25.021,224.925 25.167,224.833 25.167 C 224.742 25.167,224.667 25.350,224.667 25.573 C 224.667 25.797,224.592 26.027,224.500 26.083 C 224.408 26.140,224.333 26.332,224.333 26.510 C 224.333 26.688,224.258 26.833,224.167 26.833 C 224.075 26.833,224.000 27.021,224.000 27.250 C 224.000 27.479,223.925 27.667,223.833 27.667 C 223.742 27.667,223.667 27.812,223.667 27.990 C 223.667 28.168,223.592 28.360,223.500 28.417 C 223.408 28.473,223.333 28.703,223.333 28.927 C 223.333 29.150,223.275 29.333,223.203 29.333 C 223.131 29.333,222.970 29.690,222.845 30.125 C 222.720 30.560,222.565 30.992,222.500 31.083 C 222.287 31.382,221.500 33.583,221.500 33.879 C 221.500 34.037,221.425 34.167,221.333 34.167 C 221.242 34.167,221.167 34.312,221.167 34.490 C 221.167 34.668,221.092 34.860,221.000 34.917 C 220.908 34.973,220.833 35.203,220.833 35.427 C 220.833 35.650,220.758 35.833,220.667 35.833 C 220.575 35.833,220.500 35.979,220.500 36.157 C 220.500 36.335,220.425 36.527,220.333 36.583 C 220.242 36.640,220.167 36.869,220.167 37.093 C 220.167 37.317,220.092 37.500,220.000 37.500 C 219.908 37.500,219.833 37.614,219.833 37.752 C 219.833 37.891,219.767 38.135,219.686 38.294 C 219.605 38.453,219.446 38.808,219.333 39.083 C 219.220 39.358,219.062 39.714,218.981 39.873 C 218.900 40.032,218.833 40.276,218.833 40.414 C 218.833 40.553,218.772 40.667,218.697 40.667 C 218.622 40.667,218.458 41.042,218.333 41.500 C 218.209 41.958,218.059 42.333,218.000 42.333 C 217.941 42.333,217.791 42.708,217.667 43.167 C 217.542 43.625,217.378 44.000,217.303 44.000 C 217.228 44.000,217.167 44.173,217.167 44.383 C 217.167 44.594,217.103 44.838,217.026 44.925 C 216.948 45.012,216.642 45.721,216.346 46.500 C 216.050 47.279,215.702 48.160,215.573 48.458 L 215.339 49.000 213.711 49.003 C 211.450 49.006,211.655 48.417,211.706 54.761 L 211.750 60.250 224.406 60.293 C 234.421 60.327,237.090 60.292,237.195 60.126 C 237.478 59.680,237.359 49.212,237.070 49.101 C 236.925 49.046,235.537 49.000,233.986 49.000 C 231.217 49.000,230.607 48.866,231.333 48.417 C 231.425 48.360,231.500 48.135,231.500 47.917 C 231.500 47.698,231.575 47.473,231.667 47.417 C 231.758 47.360,231.833 47.167,231.833 46.988 C 231.833 46.809,231.902 46.532,231.985 46.373 C 232.068 46.214,232.340 45.427,232.588 44.625 L 233.039 43.167 243.376 43.167 C 254.704 43.167,254.147 43.118,254.161 44.115 C 254.164 44.316,254.242 44.527,254.333 44.583 C 254.425 44.640,254.500 44.865,254.500 45.083 C 254.500 45.302,254.575 45.527,254.667 45.583 C 254.758 45.640,254.833 45.865,254.833 46.083 C 254.833 46.302,254.908 46.527,255.000 46.583 C 255.092 46.640,255.167 46.865,255.167 47.083 C 255.167 47.302,255.242 47.527,255.333 47.583 C 255.425 47.640,255.500 47.865,255.500 48.083 C 255.500 48.302,255.575 48.527,255.667 48.583 C 256.175 48.898,255.549 48.997,252.792 49.038 L 249.750 49.083 249.706 54.708 L 249.662 60.333 263.714 60.333 C 274.422 60.333,277.814 60.286,277.967 60.133 C 278.253 59.847,278.253 49.486,277.967 49.200 C 277.837 49.070,277.163 49.000,276.050 49.000 C 274.628 49.000,274.333 48.957,274.333 48.748 C 274.333 48.609,274.267 48.365,274.186 48.206 C 274.105 48.047,273.955 47.710,273.853 47.458 C 273.750 47.206,273.582 46.794,273.478 46.542 C 273.269 46.036,273.042 45.469,272.792 44.833 C 272.701 44.604,272.562 44.286,272.481 44.127 C 272.400 43.968,272.333 43.724,272.333 43.586 C 272.333 43.447,272.258 43.333,272.167 43.333 C 272.075 43.333,272.000 43.150,272.000 42.927 C 272.000 42.703,271.925 42.473,271.833 42.417 C 271.742 42.360,271.667 42.168,271.667 41.990 C 271.667 41.812,271.592 41.667,271.500 41.667 C 271.408 41.667,271.333 41.484,271.333 41.260 C 271.333 41.036,271.258 40.807,271.167 40.750 C 271.075 40.693,271.000 40.501,271.000 40.323 C 271.000 40.146,270.925 40.000,270.833 40.000 C 270.742 40.000,270.667 39.813,270.667 39.583 C 270.667 39.354,270.592 39.167,270.500 39.167 C 270.408 39.167,270.333 39.021,270.333 38.843 C 270.333 38.665,270.258 38.473,270.167 38.417 C 270.075 38.360,270.000 38.137,270.000 37.921 C 270.000 37.705,269.941 37.503,269.868 37.472 C 269.796 37.442,269.612 37.042,269.459 36.583 C 269.034 35.309,268.667 34.310,268.387 33.667 C 268.247 33.346,268.057 32.896,267.964 32.667 C 267.871 32.438,267.728 32.120,267.647 31.961 C 267.566 31.801,267.500 31.520,267.500 31.336 C 267.500 31.151,267.425 31.000,267.333 31.000 C 267.242 31.000,267.167 30.854,267.167 30.677 C 267.167 30.499,267.092 30.307,267.000 30.250 C 266.908 30.193,266.833 29.964,266.833 29.740 C 266.833 29.516,266.758 29.333,266.667 29.333 C 266.575 29.333,266.500 29.220,266.500 29.081 C 266.500 28.942,266.434 28.699,266.353 28.539 C 266.272 28.380,266.113 28.025,266.000 27.750 C 265.887 27.475,265.728 27.120,265.647 26.961 C 265.566 26.801,265.500 26.558,265.500 26.419 C 265.500 26.280,265.425 26.167,265.333 26.167 C 265.242 26.167,265.167 25.942,265.167 25.667 C 265.167 25.392,265.092 25.167,265.000 25.167 C 264.908 25.167,264.833 25.017,264.833 24.833 C 264.833 24.650,264.758 24.500,264.667 24.500 C 264.575 24.500,264.500 24.275,264.500 24.000 C 264.500 23.725,264.425 23.500,264.333 23.500 C 264.242 23.500,264.167 23.350,264.167 23.167 C 264.167 22.983,264.092 22.833,264.000 22.833 C 263.908 22.833,263.833 22.682,263.833 22.498 C 263.833 22.313,263.764 22.032,263.679 21.873 C 263.593 21.714,263.250 20.833,262.916 19.917 C 262.263 18.127,262.159 17.854,261.833 17.083 C 261.717 16.808,261.557 16.415,261.478 16.208 C 261.197 15.480,260.959 14.913,260.814 14.627 C 260.733 14.468,260.667 14.224,260.667 14.086 C 260.667 13.947,260.592 13.833,260.500 13.833 C 260.408 13.833,260.333 13.650,260.333 13.427 C 260.333 13.203,260.258 12.973,260.167 12.917 C 260.075 12.860,260.000 12.668,260.000 12.490 C 260.000 12.312,259.925 12.167,259.833 12.167 C 259.742 12.167,259.667 11.984,259.667 11.760 C 259.667 11.536,259.592 11.307,259.500 11.250 C 259.408 11.193,259.333 11.001,259.333 10.823 C 259.333 10.646,259.258 10.500,259.167 10.500 C 259.075 10.500,259.000 10.313,259.000 10.083 C 259.000 9.854,258.925 9.667,258.833 9.667 C 258.742 9.667,258.667 9.521,258.667 9.343 C 258.667 9.165,258.592 8.973,258.500 8.917 C 258.408 8.860,258.333 8.631,258.333 8.407 C 258.333 8.183,258.258 8.000,258.167 8.000 C 258.075 8.000,258.000 7.854,258.000 7.677 C 258.000 7.499,257.925 7.307,257.833 7.250 C 257.742 7.193,257.667 6.964,257.667 6.740 C 257.667 6.516,257.592 6.333,257.500 6.333 C 257.408 6.333,257.332 6.202,257.330 6.042 C 257.328 5.881,257.181 5.431,257.004 5.042 L 256.683 4.333 244.953 4.333 L 233.223 4.333 233.009 4.792 M173.750 5.500 C 173.693 5.592,173.206 5.667,172.667 5.667 C 172.127 5.667,171.640 5.742,171.583 5.833 C 171.527 5.925,171.189 6.000,170.833 6.000 C 170.477 6.000,170.140 6.075,170.083 6.167 C 170.027 6.258,169.722 6.333,169.407 6.333 C 169.091 6.333,168.833 6.408,168.833 6.500 C 168.833 6.592,168.613 6.667,168.343 6.667 C 168.074 6.667,167.807 6.742,167.750 6.833 C 167.693 6.925,167.501 7.000,167.323 7.000 C 167.146 7.000,167.000 7.075,167.000 7.167 C 167.000 7.258,166.817 7.333,166.593 7.333 C 166.369 7.333,166.140 7.408,166.083 7.500 C 166.027 7.592,165.835 7.667,165.657 7.667 C 165.479 7.667,165.333 7.733,165.333 7.814 C 165.333 7.895,165.202 8.003,165.042 8.054 C 164.724 8.154,163.801 8.689,163.667 8.850 C 163.621 8.905,163.485 8.982,163.365 9.020 C 162.907 9.167,160.868 10.935,160.321 11.660 C 160.007 12.076,159.619 12.562,159.458 12.740 C 159.298 12.917,159.167 13.161,159.167 13.281 C 159.167 13.402,159.100 13.500,159.019 13.500 C 158.938 13.500,158.831 13.631,158.780 13.792 C 158.729 13.952,158.579 14.271,158.446 14.500 C 158.314 14.729,158.113 15.142,158.000 15.417 C 157.887 15.692,157.728 16.047,157.647 16.206 C 157.566 16.365,157.500 16.680,157.500 16.905 C 157.500 17.130,157.425 17.360,157.333 17.417 C 157.242 17.473,157.167 17.913,157.167 18.393 C 157.167 18.874,157.087 19.346,156.990 19.443 C 156.692 19.741,157.033 25.667,157.348 25.667 C 157.432 25.667,157.500 25.818,157.500 26.003 C 157.500 26.472,157.888 27.667,158.041 27.667 C 158.110 27.667,158.167 27.764,158.167 27.883 C 158.167 28.190,158.559 28.997,158.708 28.999 C 158.777 28.999,158.833 29.105,158.833 29.233 C 158.833 29.624,162.435 33.167,162.832 33.167 C 162.924 33.167,163.000 33.229,163.000 33.305 C 163.000 33.381,163.206 33.550,163.458 33.680 C 163.710 33.810,163.954 33.955,164.000 34.002 C 164.094 34.099,165.556 34.800,166.125 35.021 C 166.889 35.318,167.425 35.543,167.706 35.686 C 167.865 35.767,168.110 35.833,168.250 35.833 C 168.390 35.833,168.635 35.905,168.794 35.992 C 169.250 36.242,171.782 37.000,172.159 37.000 C 172.347 37.000,172.500 37.075,172.500 37.167 C 172.500 37.258,172.725 37.333,173.000 37.333 C 173.275 37.333,173.500 37.408,173.500 37.500 C 173.500 37.592,173.683 37.667,173.907 37.667 C 174.131 37.667,174.360 37.742,174.417 37.833 C 174.473 37.925,174.703 38.000,174.927 38.000 C 175.150 38.000,175.333 38.075,175.333 38.167 C 175.333 38.258,175.558 38.333,175.833 38.333 C 176.108 38.333,176.333 38.408,176.333 38.500 C 176.333 38.592,176.558 38.667,176.833 38.667 C 177.108 38.667,177.333 38.742,177.333 38.833 C 177.333 38.925,177.558 39.000,177.833 39.000 C 178.108 39.000,178.333 39.075,178.333 39.167 C 178.333 39.258,178.554 39.333,178.823 39.333 C 179.093 39.333,179.360 39.408,179.417 39.500 C 179.473 39.592,179.698 39.667,179.917 39.667 C 180.135 39.667,180.360 39.742,180.417 39.833 C 180.473 39.925,180.666 40.000,180.845 40.000 C 181.160 40.000,181.322 40.060,182.123 40.474 C 182.328 40.580,182.642 40.667,182.821 40.667 C 183.000 40.667,183.193 40.742,183.250 40.833 C 183.307 40.925,183.500 41.000,183.679 41.000 C 183.858 41.000,184.135 41.072,184.294 41.159 C 184.453 41.247,185.183 41.597,185.917 41.938 C 186.650 42.278,187.275 42.619,187.306 42.695 C 187.336 42.771,187.474 42.833,187.613 42.833 C 187.992 42.833,190.000 44.915,190.000 45.308 C 190.000 45.494,190.075 45.693,190.167 45.750 C 190.258 45.807,190.333 45.999,190.333 46.177 C 190.333 46.354,190.258 46.500,190.167 46.500 C 190.075 46.500,190.000 46.689,190.000 46.919 C 190.000 48.051,187.599 50.333,186.408 50.333 C 186.275 50.333,186.167 50.408,186.167 50.500 C 186.167 50.592,185.974 50.667,185.739 50.667 C 185.504 50.667,185.165 50.745,184.986 50.841 C 184.553 51.073,178.671 51.071,178.439 50.839 C 178.344 50.744,178.093 50.667,177.881 50.667 C 177.669 50.667,177.365 50.602,177.206 50.522 C 177.047 50.442,176.504 50.171,176.000 49.919 C 174.886 49.363,173.667 48.398,173.667 48.072 C 173.667 47.941,173.606 47.833,173.531 47.833 C 173.346 47.833,172.667 46.537,172.667 46.184 C 172.667 46.028,172.595 45.828,172.507 45.741 C 172.373 45.607,172.001 42.580,172.000 41.623 C 172.000 41.347,171.563 41.332,164.458 41.373 L 156.917 41.417 156.917 50.833 L 156.917 60.250 163.875 60.293 L 170.833 60.337 170.833 58.252 C 170.833 57.105,170.870 56.167,170.914 56.167 C 170.958 56.167,171.346 56.504,171.777 56.917 C 172.207 57.329,172.616 57.667,172.685 57.667 C 172.753 57.667,172.915 57.772,173.044 57.901 C 173.455 58.312,175.141 59.333,175.409 59.333 C 175.551 59.333,175.667 59.408,175.667 59.500 C 175.667 59.592,175.812 59.667,175.990 59.667 C 176.168 59.667,176.360 59.742,176.417 59.833 C 176.473 59.925,176.703 60.000,176.927 60.000 C 177.150 60.000,177.333 60.075,177.333 60.167 C 177.333 60.258,177.554 60.333,177.823 60.333 C 178.093 60.333,178.360 60.408,178.417 60.500 C 178.473 60.592,178.773 60.667,179.083 60.667 C 179.393 60.667,179.693 60.742,179.750 60.833 C 179.807 60.925,180.257 61.000,180.750 61.000 C 181.243 61.000,181.693 61.075,181.750 61.167 C 181.814 61.271,183.471 61.333,186.167 61.333 C 188.863 61.333,190.519 61.271,190.583 61.167 C 190.640 61.075,191.169 61.000,191.760 61.000 C 192.364 61.000,192.833 60.927,192.833 60.833 C 192.833 60.742,193.166 60.667,193.573 60.667 C 193.981 60.667,194.360 60.592,194.417 60.500 C 194.473 60.408,194.736 60.333,195.000 60.333 C 195.264 60.333,195.527 60.258,195.583 60.167 C 195.640 60.075,195.907 60.000,196.177 60.000 C 196.446 60.000,196.667 59.941,196.667 59.870 C 196.667 59.798,197.023 59.637,197.458 59.511 C 198.513 59.207,200.863 57.993,201.485 57.431 C 201.645 57.285,201.828 57.167,201.890 57.167 C 202.054 57.167,205.167 54.032,205.167 53.867 C 205.167 53.791,205.302 53.584,205.468 53.406 C 205.633 53.229,205.876 52.840,206.008 52.542 C 206.140 52.244,206.305 52.000,206.374 52.000 C 206.443 52.000,206.500 51.850,206.500 51.667 C 206.500 51.483,206.575 51.333,206.667 51.333 C 206.758 51.333,206.833 51.188,206.833 51.010 C 206.833 50.832,206.908 50.640,207.000 50.583 C 207.092 50.527,207.167 50.302,207.167 50.083 C 207.167 49.865,207.234 49.645,207.316 49.594 C 207.472 49.498,207.561 49.005,207.843 46.667 C 208.030 45.119,207.892 40.889,207.650 40.739 C 207.567 40.689,207.500 40.393,207.500 40.083 C 207.500 39.773,207.425 39.473,207.333 39.417 C 207.242 39.360,207.167 39.175,207.167 39.006 C 207.167 38.673,206.496 37.285,206.292 37.194 C 206.223 37.164,206.167 36.995,206.167 36.819 C 206.167 36.644,206.108 36.500,206.036 36.500 C 205.964 36.500,205.772 36.275,205.610 36.000 C 204.911 34.817,201.263 31.667,200.592 31.667 C 200.450 31.667,200.333 31.603,200.333 31.526 C 200.333 31.449,199.977 31.216,199.542 31.008 C 199.106 30.800,198.620 30.563,198.461 30.482 C 198.301 30.400,198.058 30.333,197.919 30.333 C 197.780 30.333,197.667 30.258,197.667 30.167 C 197.667 30.075,197.521 30.000,197.343 30.000 C 197.165 30.000,196.973 29.925,196.917 29.833 C 196.860 29.742,196.631 29.667,196.407 29.667 C 196.183 29.667,196.000 29.592,196.000 29.500 C 196.000 29.408,195.813 29.333,195.583 29.333 C 195.354 29.333,195.167 29.258,195.167 29.167 C 195.167 29.075,194.984 29.000,194.760 29.000 C 194.536 29.000,194.307 28.925,194.250 28.833 C 194.193 28.742,193.968 28.667,193.750 28.667 C 193.532 28.667,193.307 28.592,193.250 28.500 C 193.193 28.408,192.968 28.333,192.750 28.333 C 192.532 28.333,192.307 28.258,192.250 28.167 C 192.193 28.075,191.926 28.000,191.657 28.000 C 191.387 28.000,191.167 27.925,191.167 27.833 C 191.167 27.742,190.978 27.667,190.748 27.667 C 190.517 27.667,190.199 27.599,190.039 27.516 C 189.880 27.434,189.412 27.275,189.000 27.164 C 188.588 27.053,188.100 26.906,187.917 26.837 C 187.374 26.635,186.492 26.386,185.250 26.087 C 184.608 25.932,183.953 25.736,183.794 25.652 C 183.635 25.569,183.316 25.500,183.086 25.500 C 182.855 25.500,182.667 25.425,182.667 25.333 C 182.667 25.242,182.442 25.167,182.167 25.167 C 181.892 25.167,181.667 25.092,181.667 25.000 C 181.667 24.908,181.484 24.833,181.260 24.833 C 181.036 24.833,180.807 24.758,180.750 24.667 C 180.693 24.575,180.464 24.500,180.240 24.500 C 180.016 24.500,179.833 24.425,179.833 24.333 C 179.833 24.242,179.683 24.167,179.500 24.167 C 179.317 24.167,179.167 24.092,179.167 24.000 C 179.167 23.908,179.061 23.833,178.932 23.833 C 178.717 23.833,177.358 23.192,177.167 23.000 C 177.121 22.954,176.874 22.808,176.617 22.676 C 176.033 22.375,174.667 21.095,174.667 20.850 C 174.667 20.749,174.592 20.667,174.500 20.667 C 174.408 20.667,174.333 20.296,174.333 19.843 C 174.333 19.390,174.408 18.973,174.500 18.917 C 174.592 18.860,174.667 18.668,174.667 18.490 C 174.667 18.312,174.742 18.167,174.833 18.167 C 174.925 18.167,175.000 18.083,175.000 17.982 C 175.000 17.428,177.421 15.667,178.182 15.667 C 178.357 15.667,178.500 15.592,178.500 15.500 C 178.500 15.408,178.796 15.333,179.157 15.333 C 179.518 15.333,179.860 15.258,179.917 15.167 C 179.977 15.069,180.971 15.000,182.333 15.000 C 183.696 15.000,184.689 15.069,184.750 15.167 C 184.807 15.258,185.182 15.333,185.583 15.333 C 185.985 15.333,186.360 15.408,186.417 15.500 C 186.473 15.592,186.666 15.667,186.845 15.667 C 187.025 15.667,187.339 15.753,187.544 15.859 C 187.749 15.965,188.029 16.104,188.167 16.167 C 190.275 17.133,191.559 18.969,191.942 21.564 C 192.065 22.399,192.202 23.178,192.245 23.294 C 192.307 23.459,193.789 23.494,199.204 23.460 L 206.083 23.417 206.083 14.917 L 206.083 6.417 199.428 6.373 C 194.214 6.339,192.743 6.375,192.639 6.540 C 192.565 6.655,192.504 7.519,192.503 8.458 C 192.500 10.325,192.495 10.336,191.927 9.792 C 191.064 8.962,190.315 8.333,190.192 8.333 C 190.121 8.333,189.917 8.202,189.740 8.042 C 189.284 7.630,187.348 6.667,186.977 6.667 C 186.806 6.667,186.667 6.592,186.667 6.500 C 186.667 6.408,186.442 6.333,186.167 6.333 C 185.892 6.333,185.667 6.258,185.667 6.167 C 185.667 6.075,185.371 6.000,185.010 6.000 C 184.649 6.000,184.307 5.925,184.250 5.833 C 184.193 5.742,183.743 5.667,183.250 5.667 C 182.757 5.667,182.307 5.592,182.250 5.500 C 182.110 5.274,173.890 5.274,173.750 5.500 M122.125 8.948 C 121.855 9.019,121.833 9.422,121.833 14.429 L 121.833 19.833 124.750 19.833 L 127.667 19.833 127.667 34.250 L 127.667 48.667 125.125 48.669 C 123.727 48.670,122.415 48.716,122.208 48.772 L 121.833 48.872 121.836 54.394 C 121.837 57.432,121.898 60.011,121.971 60.126 C 122.077 60.292,125.162 60.326,136.844 60.293 L 151.583 60.250 151.627 54.562 L 151.671 48.873 151.294 48.772 C 151.086 48.717,149.773 48.670,148.375 48.669 L 145.833 48.667 145.833 34.250 L 145.833 19.833 148.750 19.833 L 151.667 19.833 151.667 14.438 L 151.667 9.042 151.146 8.937 C 150.557 8.820,122.577 8.830,122.125 8.948 M370.592 10.651 C 370.679 10.735,371.125 10.843,371.583 10.892 C 372.971 11.042,373.667 11.195,373.667 11.352 C 373.667 11.433,373.760 11.499,373.875 11.498 C 375.614 11.478,379.120 15.106,380.158 18.000 C 380.273 18.321,380.424 18.733,380.494 18.917 C 380.798 19.716,381.000 20.466,381.000 20.794 C 381.000 20.988,381.075 21.193,381.167 21.250 C 381.258 21.307,381.333 21.671,381.333 22.060 C 381.333 22.449,381.402 22.838,381.487 22.925 C 381.849 23.298,382.180 35.220,381.838 35.562 C 381.744 35.656,381.667 36.201,381.667 36.773 C 381.667 37.346,381.592 37.860,381.500 37.917 C 381.408 37.973,381.333 38.348,381.333 38.750 C 381.333 39.152,381.258 39.527,381.167 39.583 C 381.075 39.640,381.000 39.846,381.000 40.040 C 381.000 40.529,380.421 42.178,379.738 43.634 C 379.424 44.303,379.167 44.905,379.167 44.972 C 379.167 45.039,379.017 45.201,378.833 45.333 C 378.650 45.465,378.500 45.658,378.500 45.760 C 378.500 46.012,377.225 47.333,376.500 47.832 C 376.179 48.053,375.879 48.279,375.833 48.334 C 375.787 48.389,375.450 48.565,375.083 48.725 C 374.717 48.885,374.286 49.088,374.127 49.175 C 373.968 49.262,373.691 49.333,373.512 49.333 C 373.333 49.333,373.145 49.400,373.094 49.482 C 372.850 49.878,366.911 50.161,365.750 49.833 C 365.383 49.729,364.821 49.570,364.500 49.479 C 363.495 49.195,361.833 48.469,361.833 48.315 C 361.833 48.233,361.714 48.167,361.567 48.167 C 361.029 48.167,358.695 45.461,358.153 44.208 C 358.024 43.910,357.862 43.667,357.793 43.667 C 357.723 43.667,357.667 43.517,357.667 43.333 C 357.667 43.150,357.592 43.000,357.500 43.000 C 357.408 43.000,357.333 42.817,357.333 42.593 C 357.333 42.369,357.258 42.140,357.167 42.083 C 357.075 42.027,357.000 41.802,357.000 41.583 C 357.000 41.365,356.925 41.140,356.833 41.083 C 356.742 41.027,356.667 40.722,356.667 40.407 C 356.667 40.091,356.592 39.833,356.500 39.833 C 356.408 39.833,356.333 39.500,356.333 39.093 C 356.333 38.686,356.258 38.307,356.167 38.250 C 356.075 38.193,356.000 37.706,356.000 37.167 C 356.000 36.627,355.925 36.140,355.833 36.083 C 355.728 36.018,355.667 33.974,355.667 30.500 C 355.667 27.026,355.728 24.982,355.833 24.917 C 355.925 24.860,356.000 24.335,356.000 23.750 C 356.000 23.165,356.075 22.640,356.167 22.583 C 356.258 22.527,356.333 22.189,356.333 21.833 C 356.333 21.477,356.408 21.140,356.500 21.083 C 356.592 21.027,356.667 20.727,356.667 20.417 C 356.667 20.107,356.742 19.807,356.833 19.750 C 356.925 19.693,357.000 19.500,357.000 19.321 C 357.000 19.142,357.066 18.865,357.147 18.706 C 357.228 18.547,357.368 18.229,357.457 18.000 C 357.837 17.025,358.614 15.577,358.958 15.203 C 359.073 15.078,359.167 14.914,359.167 14.837 C 359.167 14.606,360.712 13.085,361.292 12.746 C 361.590 12.571,361.833 12.369,361.833 12.297 C 361.833 12.225,361.983 12.167,362.167 12.167 C 362.350 12.167,362.500 12.092,362.500 12.000 C 362.500 11.908,362.650 11.833,362.833 11.833 C 363.017 11.833,363.167 11.758,363.167 11.667 C 363.167 11.575,363.312 11.500,363.490 11.500 C 363.668 11.500,363.860 11.425,363.917 11.333 C 363.973 11.242,364.236 11.167,364.500 11.167 C 364.764 11.167,365.027 11.092,365.083 11.000 C 365.140 10.908,365.552 10.833,366.000 10.833 C 366.448 10.833,366.860 10.758,366.917 10.667 C 367.046 10.458,370.375 10.444,370.592 10.651 M68.000 11.500 C 68.000 11.683,67.925 11.833,67.833 11.833 C 67.742 11.833,67.667 12.016,67.667 12.240 C 67.667 12.464,67.592 12.693,67.500 12.750 C 67.408 12.807,67.333 12.999,67.333 13.177 C 67.333 13.354,67.258 13.500,67.167 13.500 C 67.075 13.500,67.000 13.683,67.000 13.907 C 67.000 14.131,66.925 14.360,66.833 14.417 C 66.742 14.473,66.667 14.665,66.667 14.843 C 66.667 15.021,66.592 15.167,66.500 15.167 C 66.408 15.167,66.333 15.314,66.333 15.495 C 66.333 15.675,66.183 16.090,66.000 16.417 C 65.817 16.743,65.667 17.158,65.667 17.338 C 65.667 17.519,65.608 17.667,65.536 17.667 C 65.465 17.667,65.304 18.023,65.179 18.458 C 65.054 18.894,64.898 19.325,64.833 19.417 C 64.620 19.716,63.833 21.916,63.833 22.212 C 63.833 22.370,63.758 22.500,63.667 22.500 C 63.575 22.500,63.500 22.646,63.500 22.823 C 63.500 23.001,63.425 23.193,63.333 23.250 C 63.242 23.307,63.167 23.536,63.167 23.760 C 63.167 23.984,63.092 24.167,63.000 24.167 C 62.908 24.167,62.833 24.312,62.833 24.490 C 62.833 24.668,62.758 24.860,62.667 24.917 C 62.575 24.973,62.500 25.203,62.500 25.427 C 62.500 25.650,62.425 25.833,62.333 25.833 C 62.242 25.833,62.167 25.947,62.167 26.086 C 62.167 26.224,62.100 26.468,62.019 26.627 C 61.938 26.786,61.780 27.142,61.667 27.417 C 61.554 27.692,61.395 28.047,61.314 28.206 C 61.233 28.365,61.167 28.609,61.167 28.748 C 61.167 28.886,61.105 29.000,61.030 29.000 C 60.955 29.000,60.791 29.375,60.667 29.833 C 60.542 30.292,60.392 30.667,60.333 30.667 C 60.275 30.667,60.125 31.042,60.000 31.500 C 59.875 31.958,59.712 32.333,59.637 32.333 C 59.561 32.333,59.500 32.469,59.500 32.635 C 59.500 32.801,59.350 33.248,59.167 33.627 C 58.983 34.007,58.833 34.418,58.833 34.542 C 58.833 34.666,58.769 34.838,58.690 34.925 C 58.611 35.012,58.408 35.496,58.240 36.000 C 58.071 36.504,57.873 36.988,57.800 37.075 C 57.727 37.162,57.667 37.406,57.667 37.617 C 57.667 37.828,57.592 38.000,57.500 38.000 C 57.408 38.000,57.333 38.146,57.333 38.323 C 57.333 38.501,57.258 38.693,57.167 38.750 C 57.075 38.807,57.000 39.036,57.000 39.260 C 57.000 39.484,56.925 39.667,56.833 39.667 C 56.742 39.667,56.667 39.812,56.667 39.990 C 56.667 40.168,56.592 40.360,56.500 40.417 C 56.408 40.473,56.333 40.703,56.333 40.927 C 56.333 41.150,56.258 41.333,56.167 41.333 C 56.075 41.333,56.000 41.483,56.000 41.667 C 56.000 41.850,55.925 42.000,55.833 42.000 C 55.742 42.000,55.667 42.225,55.667 42.500 C 55.667 42.775,55.592 43.000,55.500 43.000 C 55.408 43.000,55.333 43.150,55.333 43.333 C 55.333 43.517,55.258 43.667,55.167 43.667 C 55.075 43.667,55.000 43.818,55.000 44.002 C 55.000 44.187,54.913 44.506,54.807 44.711 C 54.403 45.493,54.333 45.670,54.333 45.914 C 54.333 46.053,54.272 46.167,54.197 46.167 C 54.122 46.167,53.958 46.542,53.833 47.000 C 53.709 47.458,53.554 47.833,53.491 47.833 C 53.427 47.833,53.330 48.058,53.275 48.333 L 53.175 48.833 51.337 48.833 L 49.500 48.833 49.500 54.583 L 49.500 60.333 62.232 60.333 C 73.688 60.333,74.974 60.307,75.066 60.070 C 75.121 59.925,75.167 57.456,75.167 54.583 C 75.167 51.711,75.121 49.242,75.066 49.097 C 74.979 48.871,74.555 48.833,72.066 48.833 C 69.951 48.833,69.167 48.780,69.167 48.637 C 69.167 48.393,69.491 47.350,69.687 46.961 C 69.768 46.801,69.833 46.525,69.833 46.345 C 69.833 46.166,69.908 45.973,70.000 45.917 C 70.092 45.860,70.167 45.635,70.167 45.417 C 70.167 45.198,70.242 44.973,70.333 44.917 C 70.425 44.860,70.500 44.646,70.500 44.440 C 70.500 44.235,70.569 43.995,70.653 43.908 C 70.736 43.821,70.830 43.563,70.861 43.333 L 70.917 42.917 81.398 42.874 C 92.458 42.828,92.333 42.820,92.333 43.594 C 92.333 43.806,92.408 44.027,92.500 44.083 C 92.592 44.140,92.667 44.369,92.667 44.593 C 92.667 44.817,92.742 45.000,92.833 45.000 C 92.925 45.000,93.000 45.225,93.000 45.500 C 93.000 45.775,93.075 46.000,93.167 46.000 C 93.258 46.000,93.333 46.225,93.333 46.500 C 93.333 46.775,93.408 47.000,93.500 47.000 C 93.592 47.000,93.667 47.225,93.667 47.500 C 93.667 47.775,93.742 48.000,93.833 48.000 C 93.925 48.000,94.000 48.186,94.000 48.413 L 94.000 48.826 90.958 48.871 L 87.917 48.917 87.917 54.583 L 87.917 60.250 102.250 60.250 L 116.583 60.250 116.630 54.917 C 116.689 48.183,116.880 48.833,114.844 48.833 C 112.911 48.833,112.667 48.766,112.667 48.232 C 112.667 48.013,112.592 47.833,112.500 47.833 C 112.408 47.833,112.333 47.688,112.333 47.510 C 112.333 47.332,112.258 47.140,112.167 47.083 C 112.075 47.027,112.000 46.812,112.000 46.607 C 112.000 46.401,111.937 46.162,111.860 46.075 C 111.782 45.988,111.513 45.317,111.260 44.583 C 111.008 43.850,110.734 43.179,110.651 43.092 C 110.568 43.005,110.500 42.832,110.500 42.709 C 110.500 42.585,110.350 42.173,110.167 41.794 C 109.983 41.415,109.833 41.040,109.833 40.961 C 109.833 40.882,109.683 40.507,109.500 40.127 C 109.317 39.748,109.167 39.301,109.167 39.135 C 109.167 38.969,109.092 38.833,109.000 38.833 C 108.908 38.833,108.833 38.688,108.833 38.510 C 108.833 38.332,108.758 38.140,108.667 38.083 C 108.575 38.027,108.500 37.797,108.500 37.573 C 108.500 37.350,108.425 37.167,108.333 37.167 C 108.242 37.167,108.167 37.021,108.167 36.843 C 108.167 36.665,108.092 36.473,108.000 36.417 C 107.908 36.360,107.833 36.131,107.833 35.907 C 107.833 35.683,107.758 35.500,107.667 35.500 C 107.575 35.500,107.500 35.386,107.500 35.248 C 107.500 35.109,107.434 34.865,107.353 34.706 C 107.272 34.547,107.113 34.192,107.000 33.917 C 106.887 33.642,106.728 33.286,106.647 33.127 C 106.566 32.968,106.500 32.724,106.500 32.586 C 106.500 32.447,106.425 32.333,106.333 32.333 C 106.242 32.333,106.167 32.182,106.167 31.998 C 106.167 31.813,106.097 31.532,106.012 31.373 C 105.927 31.214,105.584 30.333,105.249 29.417 C 104.607 27.656,104.387 27.098,104.147 26.627 C 104.066 26.468,104.000 26.224,104.000 26.086 C 104.000 25.947,103.925 25.833,103.833 25.833 C 103.742 25.833,103.667 25.650,103.667 25.427 C 103.667 25.203,103.592 24.973,103.500 24.917 C 103.408 24.860,103.333 24.668,103.333 24.490 C 103.333 24.312,103.258 24.167,103.167 24.167 C 103.075 24.167,103.000 23.984,103.000 23.760 C 103.000 23.536,102.925 23.307,102.833 23.250 C 102.742 23.193,102.667 23.001,102.667 22.823 C 102.667 22.646,102.592 22.500,102.500 22.500 C 102.408 22.500,102.333 22.313,102.333 22.083 C 102.333 21.854,102.258 21.667,102.167 21.667 C 102.075 21.667,102.000 21.479,102.000 21.250 C 102.000 21.021,101.925 20.833,101.833 20.833 C 101.742 20.833,101.667 20.646,101.667 20.417 C 101.667 20.188,101.592 20.000,101.500 20.000 C 101.408 20.000,101.333 19.854,101.333 19.677 C 101.333 19.499,101.258 19.307,101.167 19.250 C 101.075 19.193,101.000 18.964,101.000 18.740 C 101.000 18.516,100.925 18.333,100.833 18.333 C 100.742 18.333,100.667 18.146,100.667 17.917 C 100.667 17.688,100.592 17.500,100.500 17.500 C 100.408 17.500,100.333 17.313,100.333 17.083 C 100.333 16.854,100.258 16.667,100.167 16.667 C 100.075 16.667,100.000 16.494,100.000 16.283 C 100.000 16.073,99.934 15.829,99.854 15.742 C 99.773 15.655,99.577 15.171,99.417 14.667 C 99.257 14.162,99.060 13.679,98.980 13.592 C 98.899 13.505,98.833 13.338,98.833 13.222 C 98.833 13.105,98.644 12.595,98.412 12.088 L 97.990 11.167 82.995 11.167 C 68.111 11.167,68.000 11.169,68.000 11.500 M0.000 17.667 L 0.000 21.833 2.583 21.833 L 5.167 21.833 5.167 36.583 L 5.167 51.333 2.583 51.333 L 0.000 51.333 0.000 55.833 L 0.000 60.333 15.247 60.333 L 30.494 60.333 30.585 59.958 C 30.636 59.752,30.656 57.746,30.630 55.500 L 30.583 51.417 26.875 51.372 L 23.167 51.327 23.167 47.405 L 23.167 43.483 25.708 43.579 C 31.593 43.799,36.667 43.842,36.667 43.672 C 36.667 43.565,37.298 43.500,38.333 43.500 C 39.333 43.500,40.000 43.433,40.000 43.333 C 40.000 43.241,40.441 43.167,40.990 43.167 C 41.535 43.167,42.027 43.092,42.083 43.000 C 42.140 42.908,42.477 42.833,42.833 42.833 C 43.189 42.833,43.527 42.758,43.583 42.667 C 43.640 42.575,43.889 42.500,44.136 42.500 C 45.063 42.500,48.296 41.178,49.583 40.273 C 50.750 39.452,52.333 37.916,52.333 37.603 C 52.333 37.495,52.483 37.299,52.667 37.167 C 52.850 37.035,53.000 36.793,53.000 36.630 C 53.000 36.467,53.075 36.333,53.167 36.333 C 53.258 36.333,53.333 36.221,53.333 36.083 C 53.333 35.946,53.408 35.833,53.500 35.833 C 53.592 35.833,53.667 35.720,53.667 35.581 C 53.667 35.442,53.742 35.180,53.833 34.998 C 53.925 34.816,54.075 34.518,54.167 34.336 C 54.258 34.154,54.333 33.816,54.333 33.586 C 54.333 33.355,54.401 33.167,54.483 33.167 C 54.745 33.167,54.872 31.675,54.879 28.500 C 54.887 25.459,54.815 24.652,54.466 23.833 C 54.369 23.604,54.233 23.267,54.165 23.083 C 53.738 21.928,53.129 20.862,52.542 20.243 C 52.427 20.123,52.333 19.979,52.333 19.925 C 52.333 19.804,50.542 18.000,50.422 18.000 C 50.345 18.000,49.949 17.698,49.440 17.250 C 49.335 17.158,49.025 16.971,48.750 16.834 C 48.475 16.696,48.212 16.545,48.167 16.498 C 48.085 16.414,46.745 15.762,46.083 15.485 C 45.183 15.107,43.525 14.634,42.801 14.548 C 42.355 14.496,41.951 14.388,41.902 14.310 C 41.853 14.231,41.448 14.167,41.000 14.167 C 40.552 14.167,40.140 14.092,40.083 14.000 C 40.027 13.908,39.427 13.833,38.750 13.833 C 38.073 13.833,37.473 13.758,37.417 13.667 C 37.349 13.557,30.915 13.500,18.657 13.500 L 0.000 13.500 0.000 17.667 M243.833 15.167 C 243.833 15.442,243.908 15.667,244.000 15.667 C 244.092 15.667,244.167 15.892,244.167 16.167 C 244.167 16.442,244.242 16.667,244.333 16.667 C 244.425 16.667,244.500 16.850,244.500 17.073 C 244.500 17.297,244.575 17.527,244.667 17.583 C 244.758 17.640,244.833 17.869,244.833 18.093 C 244.833 18.317,244.908 18.500,245.000 18.500 C 245.092 18.500,245.167 18.725,245.167 19.000 C 245.167 19.275,245.242 19.500,245.333 19.500 C 245.425 19.500,245.500 19.725,245.500 20.000 C 245.500 20.275,245.575 20.500,245.667 20.500 C 245.758 20.500,245.833 20.652,245.833 20.837 C 245.833 21.199,247.233 25.558,247.504 26.039 C 247.593 26.199,247.667 26.475,247.667 26.655 C 247.667 26.834,247.742 27.027,247.833 27.083 C 247.925 27.140,248.000 27.365,248.000 27.583 C 248.000 27.802,248.075 28.027,248.167 28.083 C 248.258 28.140,248.333 28.369,248.333 28.593 C 248.333 28.817,248.408 29.000,248.500 29.000 C 248.592 29.000,248.667 29.183,248.667 29.407 C 248.667 29.631,248.742 29.860,248.833 29.917 C 248.925 29.973,249.000 30.198,249.000 30.417 C 249.000 30.635,249.075 30.860,249.167 30.917 C 249.258 30.973,249.333 31.203,249.333 31.427 C 249.333 31.650,249.408 31.833,249.500 31.833 C 249.592 31.833,249.667 32.058,249.667 32.333 L 249.667 32.833 243.500 32.833 C 239.445 32.833,237.333 32.775,237.333 32.664 C 237.333 32.571,237.407 32.365,237.496 32.206 C 237.767 31.725,239.167 27.365,239.167 27.004 C 239.167 26.818,239.242 26.667,239.333 26.667 C 239.425 26.667,239.500 26.442,239.500 26.167 C 239.500 25.892,239.575 25.667,239.667 25.667 C 239.758 25.667,239.833 25.442,239.833 25.167 C 239.833 24.892,239.908 24.667,240.000 24.667 C 240.092 24.667,240.167 24.484,240.167 24.260 C 240.167 24.036,240.242 23.807,240.333 23.750 C 240.425 23.693,240.500 23.464,240.500 23.240 C 240.500 23.016,240.575 22.833,240.667 22.833 C 240.758 22.833,240.833 22.608,240.833 22.333 C 240.833 22.058,240.908 21.833,241.000 21.833 C 241.092 21.833,241.167 21.608,241.167 21.333 C 241.167 21.058,241.242 20.833,241.333 20.833 C 241.425 20.833,241.500 20.608,241.500 20.333 C 241.500 20.058,241.575 19.833,241.667 19.833 C 241.758 19.833,241.833 19.650,241.833 19.427 C 241.833 19.203,241.908 18.973,242.000 18.917 C 242.092 18.860,242.167 18.631,242.167 18.407 C 242.167 18.183,242.242 18.000,242.333 18.000 C 242.425 18.000,242.500 17.817,242.500 17.593 C 242.500 17.369,242.575 17.140,242.667 17.083 C 242.758 17.027,242.833 16.802,242.833 16.583 C 242.833 16.365,242.908 16.140,243.000 16.083 C 243.092 16.027,243.167 15.834,243.167 15.655 C 243.167 15.293,243.509 14.667,243.707 14.667 C 243.776 14.667,243.833 14.892,243.833 15.167 M82.000 20.887 C 82.000 21.101,82.322 21.924,83.284 24.167 C 83.421 24.488,83.610 24.938,83.703 25.167 C 83.796 25.396,83.938 25.714,84.019 25.873 C 84.100 26.032,84.167 26.276,84.167 26.414 C 84.167 26.553,84.242 26.667,84.333 26.667 C 84.425 26.667,84.500 26.780,84.500 26.919 C 84.500 27.164,84.570 27.341,84.974 28.123 C 85.080 28.328,85.167 28.609,85.167 28.748 C 85.167 28.886,85.242 29.000,85.333 29.000 C 85.425 29.000,85.500 29.146,85.500 29.323 C 85.500 29.501,85.575 29.693,85.667 29.750 C 85.758 29.807,85.833 29.999,85.833 30.177 C 85.833 30.354,85.908 30.500,86.000 30.500 C 86.092 30.500,86.167 30.614,86.167 30.752 C 86.167 30.997,86.236 31.174,86.641 31.956 C 86.747 32.161,86.833 32.442,86.833 32.581 C 86.833 32.720,86.908 32.833,87.000 32.833 C 87.092 32.833,87.167 32.947,87.167 33.086 C 87.167 33.224,87.242 33.487,87.333 33.669 C 87.425 33.851,87.575 34.149,87.667 34.331 C 88.102 35.196,88.319 35.167,81.583 35.167 C 78.146 35.167,75.333 35.128,75.333 35.081 C 75.333 35.034,75.408 34.846,75.500 34.664 C 75.592 34.482,75.742 34.184,75.833 34.002 C 75.925 33.820,76.000 33.558,76.000 33.419 C 76.000 33.280,76.075 33.167,76.167 33.167 C 76.258 33.167,76.333 33.017,76.333 32.833 C 76.333 32.650,76.408 32.500,76.500 32.500 C 76.592 32.500,76.667 32.317,76.667 32.093 C 76.667 31.869,76.742 31.640,76.833 31.583 C 76.925 31.527,77.000 31.335,77.000 31.157 C 77.000 30.979,77.075 30.833,77.167 30.833 C 77.258 30.833,77.333 30.683,77.333 30.500 C 77.333 30.317,77.408 30.167,77.500 30.167 C 77.592 30.167,77.667 29.979,77.667 29.750 C 77.667 29.521,77.742 29.333,77.833 29.333 C 77.925 29.333,78.000 29.220,78.000 29.081 C 78.000 28.942,78.075 28.680,78.167 28.498 C 78.258 28.316,78.408 28.018,78.500 27.836 C 78.592 27.654,78.667 27.391,78.667 27.252 C 78.667 27.114,78.742 27.000,78.833 27.000 C 78.925 27.000,79.000 26.902,79.000 26.781 C 79.000 26.661,79.150 26.252,79.333 25.873 C 79.517 25.493,79.667 25.067,79.667 24.925 C 79.667 24.783,79.742 24.667,79.833 24.667 C 79.925 24.667,80.000 24.553,80.000 24.414 C 80.000 24.276,80.069 24.032,80.152 23.873 C 80.574 23.072,81.197 21.559,81.367 20.921 C 81.557 20.213,82.000 20.189,82.000 20.887 M30.750 22.000 C 30.807 22.092,31.187 22.167,31.595 22.167 C 32.004 22.167,32.468 22.233,32.627 22.315 C 32.786 22.397,33.292 22.638,33.750 22.851 C 34.953 23.411,36.500 25.032,36.500 25.734 C 36.500 25.865,36.581 25.999,36.681 26.033 C 36.928 26.115,36.928 30.472,36.681 30.719 C 36.581 30.819,36.500 31.072,36.500 31.283 C 36.500 31.494,36.425 31.667,36.333 31.667 C 36.242 31.667,36.167 31.776,36.167 31.909 C 36.167 32.495,34.049 34.167,33.308 34.167 C 33.138 34.167,33.000 34.242,33.000 34.333 C 33.000 34.425,32.667 34.500,32.260 34.500 C 31.853 34.500,31.473 34.575,31.417 34.667 C 31.353 34.770,29.776 34.833,27.240 34.833 L 23.167 34.833 23.167 28.333 L 23.167 21.833 26.907 21.833 C 29.220 21.833,30.686 21.897,30.750 22.000 M301.000 66.392 C 300.102 66.686,299.489 67.500,300.167 67.500 C 300.258 67.500,300.333 67.681,300.333 67.903 C 300.333 69.265,301.864 70.561,302.417 69.667 C 303.066 68.615,307.333 71.432,307.333 72.912 C 307.333 72.959,302.702 73.017,297.042 73.040 L 286.750 73.083 286.701 74.402 C 286.666 75.345,286.713 75.760,286.867 75.858 C 286.986 75.933,290.177 75.996,293.958 75.997 L 300.833 76.000 300.833 77.042 L 300.833 78.083 299.605 78.116 C 298.439 78.147,297.291 78.543,296.990 79.019 C 296.889 79.180,296.003 78.827,296.001 78.625 C 296.001 78.556,295.865 78.500,295.700 78.500 C 295.535 78.500,295.317 78.417,295.215 78.315 C 294.974 78.074,291.806 78.045,291.299 78.279 C 291.089 78.376,290.696 78.559,290.426 78.686 C 287.954 79.847,287.200 83.798,288.838 87.009 C 289.248 87.812,291.862 90.500,292.234 90.500 C 292.365 90.500,292.500 90.585,292.535 90.688 C 292.709 91.210,294.270 91.057,294.682 90.477 C 294.901 90.169,295.283 89.703,295.531 89.442 C 296.026 88.923,295.899 88.333,295.293 88.333 C 295.132 88.333,295.000 88.258,295.000 88.167 C 295.000 88.075,294.867 88.000,294.703 88.000 C 294.540 88.000,294.299 87.850,294.167 87.667 C 294.035 87.483,293.865 87.333,293.789 87.333 C 293.412 87.333,291.833 85.265,291.833 84.771 C 291.833 84.633,291.758 84.473,291.667 84.417 C 291.575 84.360,291.500 83.868,291.500 83.323 C 291.500 82.774,291.574 82.333,291.667 82.333 C 291.758 82.333,291.833 82.226,291.833 82.095 C 291.833 81.572,292.667 81.167,293.741 81.167 C 295.060 81.167,295.410 81.396,295.164 82.101 C 295.066 82.384,295.007 83.209,295.034 83.933 L 295.083 85.250 296.687 85.297 L 298.291 85.345 298.479 84.599 C 298.582 84.188,298.668 83.642,298.669 83.385 C 298.676 82.106,299.341 81.167,300.238 81.167 L 300.833 81.167 300.836 85.792 C 300.839 91.290,300.673 90.859,302.764 90.798 L 304.417 90.750 304.460 83.375 L 304.503 76.000 306.252 76.000 L 308.000 76.000 308.000 83.422 L 308.000 90.845 309.708 90.797 L 311.417 90.750 311.460 83.375 L 311.503 76.000 317.585 76.000 L 323.667 76.000 323.667 77.917 L 323.667 79.833 320.177 79.833 C 318.030 79.833,316.647 79.897,316.583 80.000 C 316.527 80.092,316.341 80.167,316.170 80.167 C 315.010 80.167,314.338 82.861,315.150 84.250 C 315.920 85.566,318.046 86.131,319.183 85.322 C 319.663 84.980,319.820 84.448,319.500 84.250 C 319.408 84.193,319.333 83.889,319.333 83.573 L 319.333 83.000 321.500 83.000 L 323.667 83.000 323.667 86.922 L 323.667 90.845 325.375 90.797 L 327.083 90.750 327.127 83.375 L 327.170 76.000 328.135 76.000 C 328.666 76.000,329.190 75.910,329.300 75.800 C 329.523 75.577,329.573 73.540,329.363 73.210 C 329.262 73.050,327.113 72.993,319.908 72.960 L 310.583 72.917 310.419 72.542 C 310.328 72.335,310.197 72.167,310.127 72.167 C 310.057 72.167,310.000 72.017,310.000 71.833 C 310.000 71.650,309.925 71.500,309.833 71.500 C 309.742 71.500,309.667 71.350,309.667 71.167 C 309.667 70.983,309.600 70.833,309.519 70.833 C 309.438 70.833,309.331 70.702,309.280 70.542 C 309.065 69.866,308.313 68.818,307.398 67.921 C 306.443 66.985,306.314 66.902,304.950 66.354 C 304.358 66.116,301.768 66.141,301.000 66.392 M215.333 73.167 C 215.196 73.256,214.876 73.329,214.623 73.331 C 214.369 73.332,214.032 73.400,213.873 73.481 C 213.714 73.562,213.377 73.724,213.125 73.842 C 212.581 74.097,212.549 74.448,213.000 75.250 C 213.183 75.576,213.333 75.952,213.333 76.085 C 213.333 76.470,214.008 76.537,215.079 76.258 C 217.382 75.658,218.818 76.288,218.828 77.905 C 218.837 79.353,218.037 79.850,215.285 80.107 L 214.320 80.197 214.369 81.557 L 214.417 82.917 216.000 82.960 C 218.437 83.026,219.167 83.573,219.167 85.337 C 219.167 86.264,218.372 87.333,217.682 87.333 C 217.501 87.333,217.307 87.408,217.250 87.500 C 217.193 87.592,216.851 87.667,216.490 87.667 C 216.129 87.667,215.833 87.592,215.833 87.500 C 215.833 87.408,215.571 87.333,215.250 87.333 C 214.929 87.333,214.667 87.276,214.667 87.206 C 214.667 87.136,214.357 86.945,213.979 86.781 C 213.240 86.460,212.667 86.735,212.667 87.410 C 212.667 87.551,212.592 87.667,212.500 87.667 C 212.408 87.667,212.333 87.817,212.333 88.000 C 212.333 88.183,212.258 88.333,212.167 88.333 C 211.846 88.333,211.994 89.030,212.333 89.118 C 212.517 89.166,212.667 89.253,212.667 89.312 C 212.667 89.371,212.910 89.517,213.208 89.637 C 213.506 89.757,213.880 89.925,214.039 90.011 C 214.199 90.097,214.550 90.167,214.821 90.167 C 215.092 90.167,215.360 90.242,215.417 90.333 C 215.473 90.425,216.186 90.500,217.000 90.500 C 217.814 90.500,218.527 90.425,218.583 90.333 C 218.640 90.242,218.940 90.167,219.250 90.167 C 219.560 90.167,219.860 90.092,219.917 90.000 C 219.973 89.908,220.133 89.833,220.271 89.833 C 220.614 89.833,222.333 88.117,222.333 87.775 C 222.333 87.624,222.408 87.500,222.500 87.500 C 222.745 87.500,222.716 84.283,222.469 84.036 C 222.179 83.746,222.462 83.563,222.839 83.798 C 223.228 84.041,224.667 84.069,224.667 83.833 C 224.667 83.742,224.817 83.667,225.000 83.667 C 225.323 83.667,225.333 83.778,225.333 87.250 L 225.333 90.833 227.083 90.833 L 228.833 90.833 228.833 83.417 L 228.833 76.000 230.667 76.000 L 232.500 76.000 232.500 83.423 L 232.500 90.845 234.125 90.798 L 235.750 90.750 235.793 83.375 L 235.837 76.000 239.835 76.000 C 243.278 76.000,243.833 76.035,243.833 76.250 C 243.833 76.387,243.908 76.500,244.000 76.500 C 244.092 76.500,244.167 76.650,244.167 76.833 C 244.167 77.017,244.242 77.167,244.333 77.167 C 244.425 77.167,244.500 77.429,244.500 77.750 C 244.500 78.071,244.575 78.333,244.667 78.333 C 244.758 78.333,244.833 78.596,244.833 78.917 C 244.833 79.237,244.758 79.500,244.667 79.500 C 244.575 79.500,244.500 79.691,244.500 79.924 C 244.500 80.392,243.829 81.167,243.424 81.167 C 243.283 81.167,243.167 81.242,243.167 81.333 C 243.167 81.425,243.054 81.500,242.917 81.500 C 242.779 81.500,242.667 81.425,242.667 81.333 C 242.667 81.242,242.568 81.167,242.448 81.167 C 242.328 81.167,241.972 80.868,241.657 80.504 C 241.122 79.886,240.333 79.585,240.333 80.000 C 240.333 80.092,240.165 80.169,239.958 80.172 C 238.943 80.186,238.509 82.243,239.333 83.128 C 239.517 83.325,239.667 83.567,239.667 83.667 C 239.667 83.766,239.743 83.938,239.836 84.049 C 239.929 84.159,240.580 85.112,241.281 86.167 C 241.983 87.221,242.601 88.121,242.654 88.167 C 242.707 88.212,242.857 88.456,242.987 88.708 C 243.117 88.960,243.285 89.167,243.361 89.167 C 243.438 89.167,243.500 89.265,243.500 89.385 C 243.500 89.505,243.631 89.753,243.792 89.936 C 243.952 90.119,244.166 90.414,244.267 90.592 C 244.580 91.146,246.656 90.886,246.665 90.292 C 246.666 90.223,246.785 90.167,246.929 90.167 C 247.073 90.167,247.298 90.060,247.429 89.929 C 247.699 89.658,247.753 88.833,247.500 88.833 C 247.408 88.833,247.333 88.751,247.333 88.650 C 247.333 88.549,247.108 88.257,246.833 88.000 C 246.558 87.743,246.333 87.465,246.333 87.382 C 246.333 87.300,246.071 86.945,245.750 86.595 C 245.429 86.245,245.167 85.898,245.167 85.824 C 245.167 85.751,245.073 85.589,244.958 85.465 C 244.172 84.614,244.118 84.510,244.331 84.253 C 244.446 84.114,244.742 84.000,244.987 84.000 C 245.233 84.000,245.533 83.906,245.654 83.792 C 245.831 83.625,245.890 83.625,245.951 83.792 C 245.993 83.906,246.167 84.000,246.337 84.000 C 246.508 84.000,246.693 84.075,246.750 84.167 C 246.807 84.258,247.032 84.333,247.250 84.333 C 247.468 84.333,247.693 84.408,247.750 84.500 C 247.809 84.595,248.641 84.667,249.677 84.667 C 250.781 84.667,251.500 84.601,251.500 84.500 C 251.500 84.408,251.575 84.333,251.667 84.333 C 251.772 84.333,251.833 85.440,251.833 87.320 C 251.833 91.120,251.690 90.833,253.595 90.833 C 255.665 90.833,255.500 91.503,255.500 83.094 L 255.500 76.000 257.082 76.000 L 258.663 76.000 258.707 83.375 L 258.750 90.750 260.500 90.750 L 262.250 90.750 262.293 83.375 L 262.337 76.000 268.335 76.000 L 274.333 76.000 274.333 77.917 L 274.333 79.833 270.927 79.833 C 268.835 79.833,267.480 79.898,267.417 80.000 C 267.360 80.092,267.165 80.167,266.983 80.167 C 266.282 80.167,265.500 81.342,265.500 82.394 C 265.500 83.618,266.512 85.333,267.234 85.333 C 267.380 85.333,267.500 85.408,267.500 85.500 C 267.500 85.594,267.972 85.667,268.583 85.667 C 269.194 85.667,269.667 85.594,269.667 85.500 C 269.667 85.408,269.817 85.333,270.000 85.333 C 270.302 85.333,270.333 85.222,270.333 84.167 L 270.333 83.000 272.330 83.000 L 274.327 83.000 274.372 86.875 L 274.417 90.750 276.125 90.797 L 277.833 90.845 277.833 83.430 L 277.833 76.015 278.958 75.966 L 280.083 75.917 280.083 74.500 L 280.083 73.083 251.750 73.083 L 223.417 73.083 223.367 74.402 C 223.311 75.919,223.366 75.994,224.542 75.997 L 225.333 76.000 225.332 78.208 L 225.331 80.417 224.882 80.625 C 224.441 80.830,221.333 80.929,221.333 80.738 C 221.333 80.686,221.558 80.316,221.833 79.917 C 222.352 79.162,222.621 76.000,222.167 76.000 C 222.075 76.000,222.000 75.850,222.000 75.667 C 222.000 75.483,221.925 75.333,221.833 75.333 C 221.742 75.333,221.667 75.225,221.667 75.092 C 221.667 74.959,221.385 74.640,221.042 74.383 C 220.698 74.127,220.392 73.860,220.361 73.792 C 220.331 73.723,220.162 73.667,219.986 73.667 C 219.810 73.667,219.667 73.592,219.667 73.500 C 219.667 73.408,219.409 73.333,219.093 73.333 C 218.778 73.333,218.473 73.258,218.417 73.167 C 218.285 72.953,215.664 72.953,215.333 73.167 M84.369 73.864 C 84.216 74.018,84.167 76.120,84.167 82.533 L 84.167 91.000 90.006 91.000 L 95.846 91.000 95.798 89.542 L 95.750 88.083 92.042 88.038 L 88.333 87.994 88.333 85.830 L 88.333 83.667 91.550 83.667 C 95.279 83.667,95.169 83.712,95.161 82.175 C 95.153 80.454,95.253 80.500,91.523 80.500 L 88.333 80.500 88.333 78.670 L 88.333 76.840 92.042 76.795 L 95.750 76.750 95.750 75.250 L 95.750 73.750 90.161 73.706 C 85.952 73.673,84.521 73.712,84.369 73.864 M102.884 74.042 C 102.789 74.248,102.636 74.604,102.545 74.833 C 102.453 75.063,102.293 75.456,102.189 75.708 C 102.085 75.960,101.935 76.335,101.856 76.542 C 101.776 76.748,101.633 77.104,101.538 77.333 C 101.138 78.293,100.533 79.970,100.321 80.708 C 100.196 81.144,100.035 81.500,99.964 81.500 C 99.892 81.500,99.833 81.725,99.833 82.000 C 99.833 82.275,99.758 82.500,99.667 82.500 C 99.575 82.500,99.500 82.614,99.500 82.752 C 99.500 82.891,99.434 83.135,99.353 83.294 C 99.201 83.592,98.912 84.269,98.625 85.000 C 98.535 85.229,98.395 85.547,98.314 85.706 C 98.233 85.865,98.167 86.146,98.167 86.331 C 98.167 86.516,98.092 86.667,98.000 86.667 C 97.908 86.667,97.833 86.812,97.833 86.990 C 97.833 87.168,97.758 87.360,97.667 87.417 C 97.575 87.473,97.500 87.703,97.500 87.927 C 97.500 88.150,97.425 88.333,97.333 88.333 C 97.242 88.333,97.167 88.516,97.167 88.740 C 97.167 88.964,97.092 89.193,97.000 89.250 C 96.908 89.307,96.833 89.499,96.833 89.677 C 96.833 89.854,96.758 90.000,96.667 90.000 C 96.575 90.000,96.500 90.225,96.500 90.500 L 96.500 91.000 98.383 91.000 C 100.383 91.000,100.667 90.903,100.667 90.217 C 100.667 90.006,100.742 89.833,100.833 89.833 C 100.925 89.833,101.000 89.608,101.000 89.333 C 101.000 89.058,101.075 88.833,101.167 88.833 C 101.258 88.833,101.333 88.688,101.333 88.510 C 101.333 88.332,101.408 88.140,101.500 88.083 C 101.592 88.027,101.667 87.797,101.667 87.573 L 101.667 87.167 104.750 87.167 C 107.691 87.167,107.833 87.182,107.833 87.490 C 107.833 87.668,107.908 87.860,108.000 87.917 C 108.092 87.973,108.167 88.203,108.167 88.427 C 108.167 88.650,108.242 88.833,108.333 88.833 C 108.425 88.833,108.500 88.984,108.500 89.169 C 108.500 89.354,108.566 89.635,108.647 89.794 C 108.728 89.953,108.891 90.290,109.009 90.542 L 109.223 91.000 111.278 91.000 C 112.409 91.000,113.333 90.961,113.333 90.914 C 113.333 90.827,113.203 90.542,112.859 89.877 C 112.753 89.672,112.667 89.391,112.667 89.252 C 112.667 89.114,112.592 89.000,112.500 89.000 C 112.408 89.000,112.333 88.775,112.333 88.500 C 112.333 88.225,112.275 88.000,112.203 88.000 C 112.131 88.000,111.970 87.644,111.845 87.208 C 111.542 86.150,110.670 83.826,110.314 83.127 C 110.233 82.968,110.167 82.687,110.167 82.502 C 110.167 82.318,110.092 82.167,110.000 82.167 C 109.908 82.167,109.833 81.984,109.833 81.760 C 109.833 81.536,109.758 81.307,109.667 81.250 C 109.575 81.193,109.500 81.001,109.500 80.823 C 109.500 80.646,109.425 80.500,109.333 80.500 C 109.242 80.500,109.167 80.349,109.167 80.164 C 109.167 79.980,109.100 79.699,109.019 79.539 C 108.938 79.380,108.780 79.025,108.667 78.750 C 108.554 78.475,108.395 78.120,108.314 77.961 C 108.233 77.801,108.167 77.520,108.167 77.336 C 108.167 77.151,108.092 77.000,108.000 77.000 C 107.908 77.000,107.833 76.817,107.833 76.593 C 107.833 76.369,107.758 76.140,107.667 76.083 C 107.575 76.027,107.500 75.835,107.500 75.657 C 107.500 75.479,107.425 75.333,107.333 75.333 C 107.242 75.333,107.167 75.150,107.167 74.927 C 107.167 74.703,107.092 74.473,107.000 74.417 C 106.908 74.360,106.833 74.168,106.833 73.990 C 106.833 73.451,103.133 73.499,102.884 74.042 M117.750 73.833 C 117.693 73.925,117.426 74.000,117.157 74.000 C 116.887 74.000,116.667 74.075,116.667 74.167 C 116.667 74.258,116.553 74.333,116.414 74.333 C 115.501 74.333,113.667 76.388,113.667 77.411 C 113.667 77.631,113.588 78.018,113.492 78.270 C 113.027 79.493,114.674 82.667,115.773 82.667 C 115.898 82.667,116.000 82.742,116.000 82.833 C 116.000 82.925,116.150 83.000,116.333 83.000 C 116.517 83.000,116.667 83.075,116.667 83.167 C 116.667 83.258,116.812 83.333,116.990 83.333 C 117.168 83.333,117.360 83.408,117.417 83.500 C 117.473 83.592,117.698 83.667,117.917 83.667 C 118.135 83.667,118.360 83.742,118.417 83.833 C 118.473 83.925,118.666 84.000,118.845 84.000 C 119.025 84.000,119.301 84.067,119.461 84.148 C 119.620 84.230,120.125 84.473,120.583 84.687 C 122.243 85.465,122.601 86.432,121.600 87.433 C 121.199 87.834,120.882 88.000,120.517 88.000 C 120.232 88.000,120.000 88.075,120.000 88.167 C 120.000 88.258,119.667 88.333,119.260 88.333 C 118.853 88.333,118.473 88.258,118.417 88.167 C 118.360 88.075,117.981 88.000,117.573 88.000 C 117.166 88.000,116.833 87.925,116.833 87.833 C 116.833 87.742,116.658 87.667,116.444 87.667 C 116.231 87.667,116.004 87.615,115.941 87.552 C 115.374 86.985,114.343 87.033,114.336 87.627 C 114.334 87.743,114.266 87.968,114.183 88.127 C 113.630 89.192,113.587 90.167,114.093 90.167 C 114.225 90.167,114.333 90.242,114.333 90.333 C 114.333 90.425,114.506 90.500,114.717 90.500 C 114.928 90.500,115.194 90.594,115.308 90.708 C 115.462 90.862,116.476 90.917,119.203 90.917 C 122.003 90.917,122.905 90.867,122.958 90.708 C 122.997 90.594,123.133 90.500,123.262 90.500 C 123.793 90.500,125.667 88.624,125.667 88.091 C 125.667 87.960,125.742 87.807,125.833 87.750 C 125.925 87.693,126.000 86.943,126.000 86.073 C 126.000 85.136,125.933 84.500,125.833 84.500 C 125.742 84.500,125.666 84.369,125.666 84.208 C 125.665 83.866,124.546 82.500,124.266 82.500 C 124.160 82.500,123.965 82.350,123.833 82.167 C 123.701 81.983,123.460 81.833,123.297 81.833 C 123.133 81.833,123.000 81.758,123.000 81.667 C 123.000 81.575,122.854 81.500,122.677 81.500 C 122.499 81.500,122.307 81.425,122.250 81.333 C 122.193 81.242,121.964 81.167,121.740 81.167 C 121.516 81.167,121.333 81.092,121.333 81.000 C 121.333 80.908,121.123 80.833,120.867 80.833 C 120.610 80.833,120.329 80.771,120.242 80.696 C 120.155 80.620,119.746 80.455,119.333 80.330 C 117.455 79.759,116.962 78.052,118.402 77.108 C 118.881 76.794,121.833 76.701,121.833 77.000 C 121.833 77.092,122.058 77.167,122.333 77.167 C 122.608 77.167,122.833 77.242,122.833 77.333 C 122.833 77.425,122.983 77.500,123.167 77.500 C 123.350 77.500,123.500 77.575,123.500 77.667 C 123.500 77.917,124.157 77.867,124.429 77.595 C 124.560 77.464,124.667 77.131,124.667 76.855 C 124.667 76.579,124.742 76.307,124.833 76.250 C 125.462 75.861,124.836 74.350,124.042 74.339 C 123.835 74.336,123.667 74.258,123.667 74.167 C 123.667 74.075,123.371 74.000,123.010 74.000 C 122.649 74.000,122.307 73.925,122.250 73.833 C 122.190 73.736,121.252 73.667,120.000 73.667 C 118.748 73.667,117.810 73.736,117.750 73.833 M125.918 73.831 C 125.787 74.043,126.755 76.104,127.171 76.500 C 127.219 76.546,127.444 76.940,127.670 77.375 C 127.897 77.810,128.139 78.167,128.208 78.167 C 128.277 78.167,128.333 78.317,128.333 78.500 C 128.333 78.683,128.400 78.833,128.481 78.833 C 128.562 78.833,128.669 78.965,128.720 79.125 C 128.819 79.436,129.353 80.361,129.513 80.500 C 129.567 80.546,129.716 80.827,129.846 81.125 C 129.975 81.423,130.138 81.667,130.207 81.667 C 130.277 81.667,130.333 81.734,130.333 81.817 C 130.333 81.900,130.596 82.432,130.917 83.000 L 131.500 84.032 131.500 87.516 L 131.500 91.000 133.500 91.000 L 135.500 91.000 135.501 87.542 C 135.501 84.133,135.508 84.071,135.939 83.250 C 136.179 82.792,136.460 82.249,136.563 82.043 C 136.666 81.837,136.806 81.669,136.875 81.668 C 136.944 81.667,137.000 81.554,137.000 81.417 C 137.000 81.279,137.066 81.167,137.147 81.167 C 137.228 81.167,137.336 81.035,137.387 80.875 C 137.478 80.589,138.002 79.665,138.167 79.500 C 138.212 79.454,138.344 79.248,138.458 79.042 C 138.573 78.835,138.760 78.498,138.875 78.292 C 138.990 78.085,139.121 77.879,139.167 77.833 C 139.332 77.668,139.856 76.744,139.946 76.458 C 139.997 76.298,140.105 76.167,140.186 76.167 C 140.267 76.167,140.333 76.097,140.333 76.011 C 140.333 75.925,140.568 75.479,140.854 75.018 C 141.641 73.752,141.537 73.667,139.205 73.667 L 137.232 73.667 136.824 74.497 C 136.600 74.954,136.360 75.329,136.292 75.331 C 136.223 75.332,136.167 75.483,136.167 75.667 C 136.167 75.850,136.092 76.000,136.000 76.000 C 135.908 76.000,135.833 76.150,135.833 76.333 C 135.833 76.517,135.758 76.667,135.667 76.667 C 135.575 76.667,135.500 76.782,135.500 76.924 C 135.500 77.065,135.350 77.342,135.167 77.538 C 134.983 77.735,134.833 77.995,134.833 78.115 C 134.833 78.235,134.772 78.333,134.698 78.333 C 134.623 78.333,134.459 78.596,134.333 78.917 C 134.207 79.237,134.043 79.500,133.969 79.500 C 133.894 79.500,133.833 79.650,133.833 79.833 C 133.833 80.386,133.575 80.212,133.153 79.375 C 132.934 78.940,132.710 78.546,132.656 78.500 C 132.601 78.454,132.451 78.173,132.321 77.875 C 132.191 77.577,132.029 77.333,131.959 77.333 C 131.890 77.333,131.833 77.183,131.833 77.000 C 131.833 76.817,131.758 76.667,131.667 76.667 C 131.575 76.667,131.500 76.568,131.500 76.448 C 131.500 76.328,131.350 76.069,131.167 75.872 C 130.983 75.675,130.833 75.398,130.833 75.257 C 130.833 75.116,130.758 75.000,130.667 75.000 C 130.575 75.000,130.500 74.850,130.500 74.667 C 130.500 74.483,130.434 74.333,130.353 74.333 C 130.272 74.333,130.166 74.183,130.118 74.000 C 130.021 73.629,126.139 73.474,125.918 73.831 M147.833 82.333 L 147.833 91.000 153.333 91.000 L 158.833 91.000 158.833 89.764 C 158.833 87.849,159.149 88.000,155.149 88.000 L 151.667 88.000 151.667 80.833 L 151.667 73.667 149.750 73.667 L 147.833 73.667 147.833 82.333 M164.589 73.824 C 164.529 73.921,164.222 74.000,163.907 74.000 C 163.591 74.000,163.333 74.075,163.333 74.167 C 163.333 74.258,163.146 74.333,162.917 74.333 C 162.688 74.333,162.500 74.408,162.500 74.500 C 162.500 74.592,162.420 74.667,162.322 74.667 C 161.846 74.667,159.834 76.336,159.834 76.730 C 159.833 76.811,159.702 76.999,159.542 77.147 C 159.169 77.491,158.500 78.777,158.500 79.149 C 158.500 79.305,158.432 79.505,158.349 79.592 C 157.869 80.097,157.868 85.072,158.349 85.575 C 158.432 85.662,158.500 85.906,158.500 86.117 C 158.500 86.327,158.575 86.500,158.667 86.500 C 158.758 86.500,158.833 86.650,158.833 86.833 C 158.833 87.017,158.908 87.167,159.000 87.167 C 159.092 87.167,159.167 87.288,159.167 87.435 C 159.167 87.972,161.972 90.500,162.567 90.500 C 162.698 90.500,162.837 90.594,162.875 90.708 C 162.927 90.866,163.758 90.917,166.272 90.917 L 169.600 90.917 170.717 90.350 C 171.331 90.038,171.833 89.720,171.833 89.642 C 171.833 89.564,171.911 89.500,172.006 89.500 C 172.230 89.500,173.333 88.396,173.333 88.172 C 173.333 88.077,173.408 88.000,173.500 88.000 C 173.592 88.000,173.667 87.894,173.667 87.764 C 173.667 87.634,173.723 87.503,173.792 87.472 C 173.996 87.381,174.667 85.993,174.667 85.661 C 174.667 85.491,174.742 85.307,174.833 85.250 C 174.933 85.188,175.000 84.085,175.000 82.500 C 175.000 80.915,174.933 79.812,174.833 79.750 C 174.742 79.693,174.667 79.426,174.667 79.157 C 174.667 78.887,174.592 78.667,174.500 78.667 C 174.408 78.667,174.333 78.553,174.333 78.414 C 174.333 78.093,174.001 77.498,173.625 77.149 C 173.465 77.000,173.333 76.790,173.333 76.683 C 173.333 76.461,172.250 75.333,172.037 75.333 C 171.960 75.333,171.751 75.202,171.573 75.042 C 171.135 74.646,169.988 74.122,169.083 73.905 C 168.208 73.694,164.708 73.631,164.589 73.824 M180.232 74.120 C 180.171 74.375,180.068 74.658,180.003 74.750 C 179.938 74.842,179.672 75.554,179.411 76.333 C 179.151 77.112,178.877 77.821,178.803 77.908 C 178.728 77.995,178.667 78.239,178.667 78.450 C 178.667 78.661,178.592 78.833,178.500 78.833 C 178.408 78.833,178.333 78.979,178.333 79.157 C 178.333 79.335,178.258 79.527,178.167 79.583 C 178.075 79.640,178.000 79.869,178.000 80.093 C 178.000 80.317,177.925 80.500,177.833 80.500 C 177.742 80.500,177.667 80.683,177.667 80.907 C 177.667 81.131,177.592 81.360,177.500 81.417 C 177.408 81.473,177.333 81.665,177.333 81.843 C 177.333 82.021,177.258 82.167,177.167 82.167 C 177.075 82.167,177.000 82.318,177.000 82.502 C 177.000 82.687,176.934 82.968,176.853 83.127 C 176.686 83.455,176.349 84.253,176.167 84.750 C 175.985 85.247,175.647 86.045,175.481 86.373 C 175.400 86.532,175.333 86.813,175.333 86.998 C 175.333 87.182,175.275 87.333,175.203 87.333 C 175.131 87.333,174.969 87.690,174.842 88.125 C 174.715 88.560,174.557 89.029,174.491 89.167 C 173.579 91.080,173.519 91.000,175.879 91.000 L 177.947 91.000 178.252 89.958 C 178.419 89.385,178.619 88.845,178.695 88.758 C 178.771 88.671,178.833 88.427,178.833 88.217 C 178.833 88.006,178.908 87.833,179.000 87.833 C 179.092 87.833,179.167 87.682,179.167 87.496 C 179.167 87.169,179.252 87.160,182.201 87.205 L 185.235 87.250 185.662 88.500 C 185.896 89.188,186.133 89.825,186.188 89.917 C 186.243 90.008,186.337 90.290,186.397 90.542 L 186.506 91.000 188.590 91.000 L 190.673 91.000 190.564 90.542 C 190.504 90.290,190.278 89.639,190.061 89.096 C 189.844 88.553,189.667 88.044,189.667 87.963 C 189.667 87.883,189.517 87.507,189.333 87.127 C 189.150 86.748,189.000 86.338,189.000 86.216 C 189.000 86.095,188.934 85.865,188.853 85.706 C 188.772 85.547,188.622 85.210,188.519 84.958 C 188.417 84.706,188.248 84.294,188.144 84.042 C 188.040 83.790,187.882 83.396,187.792 83.167 C 187.701 82.938,187.562 82.620,187.481 82.461 C 187.400 82.301,187.333 82.020,187.333 81.836 C 187.333 81.651,187.258 81.500,187.167 81.500 C 187.075 81.500,187.000 81.349,187.000 81.164 C 187.000 80.980,186.934 80.699,186.853 80.539 C 186.772 80.380,186.613 80.025,186.500 79.750 C 186.387 79.475,186.228 79.120,186.147 78.961 C 186.066 78.801,186.000 78.520,186.000 78.336 C 186.000 78.151,185.925 78.000,185.833 78.000 C 185.742 78.000,185.667 77.850,185.667 77.667 C 185.667 77.483,185.592 77.333,185.500 77.333 C 185.408 77.333,185.333 77.108,185.333 76.833 C 185.333 76.558,185.258 76.333,185.167 76.333 C 185.075 76.333,185.000 76.158,185.000 75.944 C 185.000 75.731,184.949 75.505,184.887 75.442 C 184.825 75.380,184.651 74.974,184.501 74.540 L 184.229 73.750 182.285 73.703 L 180.342 73.656 180.232 74.120 M191.333 82.333 L 191.333 91.000 193.250 91.000 L 195.167 91.000 195.167 86.722 C 195.167 84.369,195.085 81.975,194.985 81.402 C 194.790 80.282,194.858 79.418,195.085 80.125 C 195.151 80.331,195.253 80.500,195.312 80.500 C 195.371 80.500,195.512 80.711,195.626 80.969 C 195.740 81.226,195.965 81.583,196.125 81.760 C 196.285 81.938,196.523 82.290,196.653 82.542 C 196.783 82.794,196.952 83.000,197.028 83.000 C 197.104 83.000,197.167 83.079,197.167 83.176 C 197.167 83.273,197.485 83.821,197.875 84.393 C 198.265 84.966,198.658 85.552,198.750 85.696 C 199.096 86.239,200.396 88.087,200.488 88.167 C 200.541 88.212,200.690 88.456,200.820 88.708 C 200.950 88.960,201.119 89.167,201.195 89.167 C 201.271 89.167,201.334 89.260,201.334 89.375 C 201.334 89.490,201.559 89.846,201.833 90.167 C 202.108 90.487,202.333 90.806,202.333 90.875 C 202.333 90.944,203.197 91.000,204.251 91.000 L 206.170 91.000 206.126 82.375 L 206.083 73.750 204.250 73.750 L 202.417 73.750 202.373 79.321 L 202.329 84.891 201.810 84.071 C 201.525 83.619,201.245 83.212,201.187 83.167 C 201.130 83.121,200.976 82.877,200.847 82.625 C 200.717 82.373,200.548 82.167,200.472 82.167 C 200.396 82.167,200.333 82.068,200.333 81.948 C 200.333 81.828,200.202 81.584,200.042 81.406 C 199.881 81.229,199.644 80.877,199.514 80.625 C 199.383 80.373,199.215 80.167,199.139 80.167 C 199.062 80.167,199.000 80.054,199.000 79.917 C 199.000 79.779,198.925 79.667,198.833 79.667 C 198.742 79.667,198.667 79.554,198.667 79.417 C 198.667 79.279,198.592 79.167,198.500 79.167 C 198.408 79.167,198.333 79.054,198.333 78.917 C 198.333 78.779,198.276 78.667,198.206 78.667 C 198.136 78.667,197.893 78.367,197.667 78.000 C 197.440 77.633,197.197 77.333,197.127 77.333 C 197.057 77.333,197.000 77.257,197.000 77.163 C 197.000 77.013,196.092 75.566,195.690 75.073 C 195.610 74.975,195.448 74.714,195.330 74.493 C 194.916 73.719,194.768 73.667,193.012 73.667 L 191.333 73.667 191.333 82.333 M251.833 78.320 C 251.833 80.858,251.779 81.167,251.329 81.167 C 251.164 81.167,251.003 81.234,250.972 81.315 C 250.919 81.459,249.459 81.578,248.408 81.526 C 247.898 81.500,247.728 80.521,248.185 80.239 C 248.389 80.112,248.373 78.211,248.167 78.083 C 248.075 78.027,248.000 77.806,248.000 77.594 C 248.000 77.381,247.886 76.936,247.748 76.604 L 247.496 76.000 249.664 76.000 L 251.833 76.000 251.833 78.320 M168.000 77.000 C 168.000 77.092,168.150 77.167,168.333 77.167 C 168.517 77.167,168.667 77.242,168.667 77.333 C 168.667 77.425,168.750 77.500,168.853 77.500 C 169.102 77.500,170.167 78.675,170.167 78.949 C 170.167 79.069,170.242 79.167,170.333 79.167 C 170.425 79.167,170.500 79.312,170.500 79.490 C 170.500 79.668,170.575 79.860,170.667 79.917 C 170.758 79.973,170.833 80.348,170.833 80.750 C 170.833 81.152,170.908 81.527,171.000 81.583 C 171.092 81.640,171.167 82.094,171.167 82.593 C 171.167 83.092,171.092 83.500,171.000 83.500 C 170.908 83.500,170.833 83.837,170.833 84.250 C 170.833 84.662,170.758 85.000,170.667 85.000 C 170.575 85.000,170.500 85.114,170.500 85.252 C 170.500 85.794,168.965 87.667,168.522 87.667 C 168.418 87.667,168.333 87.742,168.333 87.833 C 168.333 87.925,168.108 88.000,167.833 88.000 C 167.558 88.000,167.333 88.075,167.333 88.167 C 167.333 88.810,164.472 87.841,163.643 86.917 C 162.989 86.188,162.667 85.707,162.667 85.458 C 162.667 85.298,162.592 85.167,162.500 85.167 C 162.408 85.167,162.333 84.909,162.333 84.593 C 162.333 84.278,162.258 83.973,162.167 83.917 C 162.075 83.860,162.000 83.181,162.000 82.407 C 162.000 81.580,162.069 81.000,162.167 81.000 C 162.258 81.000,162.333 80.782,162.333 80.516 C 162.333 79.521,163.493 77.889,164.703 77.178 C 165.307 76.824,168.000 76.678,168.000 77.000 M105.000 79.000 C 105.000 79.275,105.075 79.500,105.167 79.500 C 105.258 79.500,105.333 79.725,105.333 80.000 C 105.333 80.275,105.408 80.500,105.500 80.500 C 105.592 80.500,105.667 80.725,105.667 81.000 C 105.667 81.275,105.742 81.500,105.833 81.500 C 105.925 81.500,106.000 81.688,106.000 81.917 C 106.000 82.146,106.075 82.333,106.167 82.333 C 106.258 82.333,106.333 82.516,106.333 82.739 C 106.333 82.962,106.406 83.337,106.496 83.572 L 106.658 84.000 104.829 84.000 C 103.022 84.000,102.404 83.721,103.167 83.250 C 103.258 83.193,103.333 82.968,103.333 82.750 C 103.333 82.532,103.408 82.307,103.500 82.250 C 103.592 82.193,103.667 81.964,103.667 81.740 C 103.667 81.516,103.742 81.333,103.833 81.333 C 103.925 81.333,104.000 81.150,104.000 80.927 C 104.000 80.703,104.075 80.473,104.167 80.417 C 104.258 80.360,104.333 80.135,104.333 79.917 C 104.333 79.698,104.408 79.473,104.500 79.417 C 104.592 79.360,104.667 79.131,104.667 78.907 C 104.667 78.683,104.742 78.500,104.833 78.500 C 104.925 78.500,105.000 78.725,105.000 79.000 M182.500 79.250 C 182.500 79.468,182.575 79.693,182.667 79.750 C 182.758 79.807,182.833 80.032,182.833 80.250 C 182.833 80.468,182.908 80.693,183.000 80.750 C 183.092 80.807,183.167 81.036,183.167 81.260 C 183.167 81.484,183.242 81.667,183.333 81.667 C 183.425 81.667,183.500 81.892,183.500 82.167 C 183.500 82.442,183.575 82.667,183.667 82.667 C 183.758 82.667,183.833 82.892,183.833 83.167 C 183.833 83.442,183.908 83.667,184.000 83.667 C 184.092 83.667,184.167 83.742,184.167 83.833 C 184.167 83.935,183.426 84.000,182.279 84.000 L 180.391 84.000 180.464 83.500 C 180.505 83.225,180.604 83.000,180.686 83.000 C 180.767 83.000,180.833 82.775,180.833 82.500 C 180.833 82.225,180.908 82.000,181.000 82.000 C 181.092 82.000,181.167 81.849,181.167 81.664 C 181.167 81.480,181.242 81.180,181.333 80.998 C 181.425 80.816,181.575 80.518,181.667 80.336 C 181.758 80.154,181.833 79.906,181.833 79.785 C 181.833 79.436,182.232 78.687,182.372 78.774 C 182.443 78.817,182.500 79.032,182.500 79.250 " stroke="none" fill="#ed1c24" fill-rule="evenodd"></path><path id="path3" d="M351.958 3.178 C 351.615 3.359,351.333 3.545,351.333 3.591 C 351.333 3.665,352.650 3.050,352.819 2.896 C 353.011 2.723,352.511 2.886,351.958 3.178 M390.676 6.792 C 390.687 6.945,391.667 7.733,391.667 7.588 C 391.667 7.461,390.883 6.667,390.758 6.667 C 390.708 6.667,390.671 6.723,390.676 6.792 M161.406 10.375 L 160.917 10.917 161.458 10.427 C 161.756 10.158,162.000 9.914,162.000 9.885 C 162.000 9.757,161.862 9.870,161.406 10.375 M396.167 13.230 C 396.167 13.409,396.663 14.333,396.759 14.333 C 396.804 14.333,396.718 14.090,396.566 13.792 C 396.257 13.183,396.167 13.056,396.167 13.230 M41.980 14.380 C 42.060 14.460,42.341 14.499,42.605 14.466 C 43.045 14.411,43.034 14.400,42.458 14.320 C 42.100 14.271,41.896 14.296,41.980 14.380 M379.012 15.750 C 379.012 15.842,379.119 16.104,379.250 16.333 C 379.381 16.563,379.488 16.675,379.488 16.583 C 379.488 16.492,379.381 16.229,379.250 16.000 C 379.119 15.771,379.012 15.658,379.012 15.750 M81.500 20.391 C 81.500 20.528,81.455 20.777,81.401 20.945 C 81.326 21.177,81.341 21.195,81.466 21.020 C 81.556 20.894,81.713 20.842,81.815 20.905 C 82.089 21.075,82.040 20.682,81.750 20.393 C 81.529 20.172,81.500 20.172,81.500 20.391 M191.833 22.046 C 191.833 22.376,191.904 22.691,191.990 22.744 C 192.084 22.802,192.108 22.587,192.050 22.212 C 191.921 21.375,191.833 21.308,191.833 22.046 M5.080 36.583 C 5.080 44.742,5.100 48.055,5.125 43.946 C 5.150 39.837,5.150 33.162,5.125 29.112 C 5.100 25.063,5.080 28.425,5.080 36.583 M34.833 23.552 C 34.833 23.581,35.077 23.825,35.375 24.094 L 35.917 24.583 35.427 24.042 C 34.971 23.537,34.833 23.423,34.833 23.552 M337.278 28.111 C 337.126 28.263,337.141 32.535,337.294 32.776 C 337.362 32.882,337.417 31.850,337.417 30.484 C 337.417 29.118,337.410 28.000,337.403 28.000 C 337.395 28.000,337.339 28.050,337.278 28.111 M170.333 36.642 C 170.471 36.722,170.808 36.837,171.083 36.896 C 171.403 36.966,171.493 36.952,171.333 36.858 C 171.196 36.778,170.858 36.663,170.583 36.604 C 170.263 36.534,170.173 36.548,170.333 36.642 M322.958 37.125 C 324.906 37.151,328.094 37.151,330.042 37.125 C 331.990 37.098,330.396 37.076,326.500 37.076 C 322.604 37.076,321.010 37.098,322.958 37.125 M172.039 41.833 C 172.039 42.154,172.073 42.285,172.115 42.125 C 172.157 41.965,172.157 41.702,172.115 41.542 C 172.073 41.381,172.039 41.512,172.039 41.833 M207.917 44.416 C 207.917 45.361,207.973 46.100,208.042 46.057 C 208.203 45.958,208.201 43.145,208.039 42.890 C 207.972 42.784,207.917 43.471,207.917 44.416 M174.333 48.840 C 174.746 49.202,175.150 49.499,175.231 49.500 C 175.312 49.500,175.162 49.334,174.897 49.131 C 174.633 48.928,174.295 48.628,174.147 48.464 C 173.999 48.301,173.811 48.170,173.730 48.174 C 173.650 48.178,173.921 48.477,174.333 48.840 M69.169 48.542 C 69.167 48.808,69.415 48.833,72.069 48.833 C 73.886 48.833,75.004 48.897,75.057 49.004 C 75.104 49.098,75.122 49.079,75.099 48.962 C 75.067 48.803,74.360 48.739,72.244 48.704 C 70.249 48.672,69.393 48.599,69.301 48.454 C 69.211 48.312,69.171 48.338,69.169 48.542 M51.333 48.667 L 49.583 48.768 51.375 48.801 C 52.480 48.821,53.167 48.769,53.167 48.667 C 53.167 48.575,53.148 48.515,53.125 48.533 C 53.102 48.551,52.296 48.611,51.333 48.667 M112.891 48.706 C 112.997 48.773,113.833 48.818,114.750 48.806 C 116.606 48.781,116.337 48.703,114.141 48.631 C 113.347 48.605,112.785 48.638,112.891 48.706 M362.500 48.750 C 362.729 48.881,362.992 48.988,363.083 48.988 C 363.175 48.988,363.063 48.881,362.833 48.750 C 362.604 48.619,362.342 48.512,362.250 48.512 C 362.158 48.512,362.271 48.619,362.500 48.750 M89.533 48.791 C 90.331 48.821,91.681 48.821,92.533 48.791 C 93.386 48.761,92.733 48.736,91.083 48.736 C 89.433 48.735,88.736 48.760,89.533 48.791 M393.872 51.000 C 393.758 51.183,393.721 51.333,393.792 51.333 C 393.862 51.333,394.013 51.183,394.128 51.000 C 394.242 50.817,394.279 50.667,394.208 50.667 C 394.138 50.667,393.987 50.817,393.872 51.000 M345.167 52.917 C 345.478 53.237,345.786 53.500,345.852 53.500 C 345.918 53.500,345.717 53.237,345.406 52.917 C 345.094 52.596,344.786 52.333,344.720 52.333 C 344.655 52.333,344.856 52.596,345.167 52.917 M203.692 55.434 C 203.568 55.574,203.499 55.722,203.540 55.762 C 203.580 55.802,203.749 55.685,203.916 55.501 C 204.082 55.317,204.150 55.170,204.067 55.173 C 203.985 55.176,203.815 55.294,203.692 55.434 M300.126 67.917 C 300.170 68.146,300.234 68.333,300.269 68.333 C 300.305 68.333,300.333 68.146,300.333 67.917 C 300.333 67.688,300.269 67.500,300.190 67.500 C 300.111 67.500,300.082 67.688,300.126 67.917 M125.667 74.000 C 125.667 74.183,125.726 74.333,125.798 74.333 C 125.870 74.333,125.929 74.183,125.929 74.000 C 125.929 73.817,125.870 73.667,125.798 73.667 C 125.726 73.667,125.667 73.817,125.667 74.000 M136.783 74.252 C 136.630 74.572,136.540 74.833,136.582 74.833 C 136.696 74.833,137.202 73.813,137.125 73.737 C 137.089 73.700,136.935 73.932,136.783 74.252 M191.244 82.417 C 191.244 87.183,191.266 89.109,191.292 86.697 C 191.318 84.284,191.318 80.384,191.292 78.030 C 191.265 75.676,191.244 77.650,191.244 82.417 M125.000 74.917 C 125.000 75.054,125.075 75.167,125.167 75.167 C 125.258 75.167,125.333 75.054,125.333 74.917 C 125.333 74.779,125.258 74.667,125.167 74.667 C 125.075 74.667,125.000 74.779,125.000 74.917 M311.500 83.367 C 311.454 87.464,311.474 90.760,311.543 90.690 C 311.613 90.620,311.651 87.268,311.627 83.240 L 311.583 75.917 311.500 83.367 M213.500 76.492 C 213.637 76.585,213.894 76.663,214.069 76.664 C 214.496 76.668,214.363 76.572,213.750 76.435 C 213.385 76.353,213.317 76.369,213.500 76.492 M113.444 77.778 C 113.383 77.839,113.338 78.045,113.344 78.236 C 113.354 78.555,113.367 78.551,113.514 78.184 C 113.677 77.776,113.644 77.579,113.444 77.778 M292.610 77.958 C 292.568 78.027,292.859 78.085,293.257 78.087 C 293.656 78.090,293.892 78.035,293.782 77.965 C 293.525 77.801,292.709 77.796,292.610 77.958 M299.333 77.898 C 299.333 77.934,299.596 77.994,299.917 78.032 C 300.237 78.069,300.500 78.040,300.500 77.967 C 300.500 77.893,300.237 77.833,299.917 77.833 C 299.596 77.833,299.333 77.863,299.333 77.898 M288.360 80.590 C 288.081 81.203,288.134 81.334,288.436 80.777 C 288.577 80.517,288.662 80.273,288.623 80.235 C 288.585 80.196,288.467 80.357,288.360 80.590 M194.968 81.417 C 195.006 81.737,195.066 82.000,195.102 82.000 C 195.137 82.000,195.167 81.737,195.167 81.417 C 195.167 81.096,195.107 80.833,195.033 80.833 C 194.960 80.833,194.931 81.096,194.968 81.417 M238.667 81.583 C 238.667 81.813,238.695 82.000,238.731 82.000 C 238.766 82.000,238.830 81.813,238.874 81.583 C 238.918 81.354,238.889 81.167,238.810 81.167 C 238.731 81.167,238.667 81.354,238.667 81.583 M106.012 82.458 C 106.058 82.947,106.311 83.219,106.322 82.792 C 106.328 82.540,106.258 82.333,106.167 82.333 C 106.075 82.333,106.005 82.390,106.012 82.458 M287.881 83.250 C 287.882 83.708,287.915 83.876,287.953 83.623 C 287.991 83.369,287.990 82.994,287.951 82.789 C 287.911 82.584,287.880 82.792,287.881 83.250 M244.331 84.253 C 244.153 84.467,244.153 84.550,244.332 84.715 C 244.503 84.875,244.522 84.869,244.420 84.690 C 244.344 84.556,244.383 84.406,244.515 84.324 C 244.639 84.247,244.697 84.141,244.644 84.088 C 244.591 84.035,244.450 84.109,244.331 84.253 M292.828 86.468 C 293.034 86.771,293.240 86.982,293.285 86.937 C 293.330 86.892,293.161 86.644,292.910 86.386 L 292.453 85.917 292.828 86.468 M103.217 87.291 C 104.116 87.321,105.541 87.321,106.384 87.291 C 107.227 87.261,106.492 87.236,104.750 87.236 C 103.008 87.236,102.318 87.261,103.217 87.291 M180.167 87.281 C 182.832 87.401,185.296 87.406,185.225 87.292 C 185.182 87.223,183.783 87.181,182.115 87.199 C 180.448 87.217,179.571 87.254,180.167 87.281 M118.442 88.208 C 118.485 88.277,118.853 88.333,119.260 88.333 C 119.667 88.333,120.000 88.277,120.000 88.208 C 120.000 88.140,119.632 88.083,119.183 88.083 C 118.733 88.083,118.400 88.140,118.442 88.208 M166.110 88.208 C 166.213 88.376,167.333 88.369,167.333 88.200 C 167.333 88.127,167.041 88.071,166.683 88.075 C 166.326 88.080,166.068 88.140,166.110 88.208 M159.833 88.560 C 159.833 88.732,160.671 89.551,160.758 89.464 C 160.798 89.425,160.606 89.178,160.332 88.915 C 160.058 88.652,159.833 88.493,159.833 88.560 M221.439 88.939 C 221.176 89.165,220.992 89.381,221.030 89.418 C 221.067 89.456,221.313 89.302,221.576 89.076 C 221.839 88.850,222.023 88.634,221.985 88.597 C 221.948 88.559,221.702 88.713,221.439 88.939 M178.616 88.792 C 178.487 89.022,178.305 89.917,178.408 89.814 C 178.532 89.690,178.835 88.667,178.748 88.667 C 178.714 88.667,178.655 88.723,178.616 88.792 M290.500 89.292 C 290.500 89.362,290.650 89.513,290.833 89.628 C 291.017 89.742,291.167 89.779,291.167 89.708 C 291.167 89.638,291.017 89.487,290.833 89.372 C 290.650 89.258,290.500 89.221,290.500 89.292 " stroke="none" fill="#ff0000" fill-rule="evenodd"></path><path id="path4" d="" stroke="none" fill="#ff5555" fill-rule="evenodd"></path></g></svg>